<?xml version="1.0" standalone="no"?>
<!DOCTYPE svg PUBLIC "-//W3C//DTD SVG 1.1//EN" "http://www.w3.org/Graphics/SVG/1.1/DTD/svg11.dtd" >
<svg xmlns="http://www.w3.org/2000/svg" xmlns:xlink="http://www.w3.org/1999/xlink" version="1.1">
<metadata></metadata>
<defs>
<font id="agendamedium" horiz-adv-x="455" >
<font-face units-per-em="1000" ascent="800" descent="-200" />
<missing-glyph horiz-adv-x="262" />
<glyph horiz-adv-x="0" />
<glyph unicode="&#xd;" horiz-adv-x="262" />
<glyph unicode=" "  horiz-adv-x="262" />
<glyph unicode="&#x09;" horiz-adv-x="262" />
<glyph unicode="&#xa0;" horiz-adv-x="262" />
<glyph unicode="!" horiz-adv-x="304" d="M213 777h-122l18 -572l86 -19zM226 57q0 8 -7.5 20t-19 23t-23.5 18t-20 7q-9 0 -20.5 -7t-23 -18t-18.5 -23t-7 -20q0 -9 7 -20.5t18.5 -23t23 -19t20.5 -7.5q8 0 20 7.5t23.5 19t19 23t7.5 20.5z" />
<glyph unicode="&#x22;" horiz-adv-x="356" d="M312 812h-92l18 -261h55zM137 812h-93l18 -261h54z" />
<glyph unicode="#" horiz-adv-x="491" d="M459 432v66h-53l52 229h-74l-52 -229h-109l53 229h-74l-53 -229h-90v-66h74l-32 -137h-70v-66h55l-53 -229h74l53 229h108l-53 -229h75l52 229h89v66h-73l32 137h69zM316 432l-32 -137h-108l31 137h109z" />
<glyph unicode="$" horiz-adv-x="533" d="M483 203q0 41 -16 76t-43.5 63t-67 51t-86.5 41q-58 23 -89.5 51t-31.5 66q0 20 8.5 38.5t24.5 32t38.5 22t50.5 8.5q43 0 78.5 -11t66.5 -28l21 89q-29 16 -63 27t-86 13v98h-65v-101q-84 -15 -129.5 -68.5t-45.5 -128.5q0 -73 54.5 -127t147.5 -87q64 -22 97.5 -56.5 t33.5 -77.5q0 -24 -10 -45t-28 -37t-44.5 -25t-60.5 -9q-54 0 -97.5 18t-73.5 41l-23 -95q34 -23 77.5 -38t101.5 -18v-97h65v101q49 5 86.5 24.5t61 48.5t35.5 65t12 75z" />
<glyph unicode="%" horiz-adv-x="793" d="M366 579q0 35 -12.5 65.5t-34 52t-51.5 33.5t-65 12q-34 0 -64 -12t-51.5 -33.5t-34 -52t-12.5 -65.5q0 -36 12.5 -66.5t34 -52t51.5 -33.5t64 -12q35 0 65 12t51.5 33.5t34 52t12.5 66.5zM720 714l-50 42l-598 -741l50 -42zM752 150q0 36 -12.5 66t-34 52t-51 34 t-63.5 12q-36 0 -65.5 -12t-51 -34t-34 -52t-12.5 -66t12.5 -66t34 -52t51 -34t65.5 -12q34 0 63.5 12t51 34t34 52t12.5 66zM282 579q0 -40 -23.5 -62.5t-55.5 -22.5q-33 0 -55.5 22.5t-22.5 62.5q0 39 22.5 61t55.5 22q32 0 55.5 -22t23.5 -61zM668 150q0 -39 -23 -62.5 t-54 -23.5q-34 0 -56.5 23.5t-22.5 62.5t22.5 61t56.5 22q31 0 54 -22t23 -61z" />
<glyph unicode="&#x26;" horiz-adv-x="688" d="M705 0l-138 138q29 40 48.5 80.5t29.5 71.5l-69 70q-13 -36 -32.5 -76.5t-45.5 -77.5l-158 159q27 13 52 34t45 45.5t31.5 53.5t11.5 61q0 42 -17.5 75.5t-45.5 57.5t-64 37t-73 13q-35 0 -69 -13t-61 -37t-43.5 -57.5t-16.5 -75.5q0 -46 25 -91.5t65 -83.5 q-64 -33 -100 -81t-36 -121q0 -40 17.5 -75t48 -62t73 -43t93.5 -16q72 0 126.5 22.5t96.5 56.5l65 -65h141zM381 557q0 -31 -28.5 -65t-80.5 -60q-38 38 -60.5 67t-22.5 58q0 18 7 35t19.5 30.5t29 22t35.5 8.5q21 0 39 -8.5t32 -22t22 -30.5t8 -35zM431 133 q-33 -26 -70 -41.5t-79 -15.5q-28 0 -52 8.5t-42 24t-28.5 36t-10.5 43.5q0 46 24 75t74 54z" />
<glyph unicode="'" horiz-adv-x="181" d="M137 812h-93l18 -261h54z" />
<glyph unicode="(" horiz-adv-x="307" d="M280 788l-103 23q-61 -113 -95 -242.5t-34 -293.5q0 -85 8.5 -155t24.5 -131.5t38 -116t49 -107.5l107 -24q-32 65 -56 129t-39.5 129.5t-23 134t-7.5 142.5q0 144 36.5 275.5t94.5 236.5z" />
<glyph unicode=")" horiz-adv-x="307" d="M260 275q0 83 -8.5 153.5t-24.5 132t-38.5 116.5t-48.5 107l-107 25q32 -66 55.5 -129.5t38.5 -128.5t23 -133.5t8 -143.5q0 -143 -36 -274.5t-95 -236.5l103 -24q60 113 95 243t35 293z" />
<glyph unicode="*" horiz-adv-x="474" d="M458 589l-50 84l-136 -57l12 168l-95 -21l9 -147l-154 61l-10 -93l143 -37l-106 -130l86 -40l79 125l91 -141l64 71l-95 115z" />
<glyph unicode="+" horiz-adv-x="517" d="M472 271v89h-164v156h-97v-156h-165v-89h165v-156h97v156h164z" />
<glyph unicode="," horiz-adv-x="224" d="M181 57q0 10 -8 22t-19.5 22.5t-23 17t-18.5 6.5q-8 0 -20 -7t-23 -17.5t-19 -22.5t-8 -21q0 -7 6 -16t14.5 -17t18 -14.5t17.5 -7.5q-5 -26 -24 -65.5t-50 -78.5l40 -7q20 18 40.5 46.5t38 58t28 57t10.5 44.5z" />
<glyph unicode="-" horiz-adv-x="376" d="M331 271v89h-285v-89h285z" />
<glyph unicode="." horiz-adv-x="224" d="M181 57q0 8 -7.5 20t-18.5 23t-23 18t-20 7q-9 0 -20.5 -7t-23 -18t-19 -23t-7.5 -20q0 -9 7.5 -20.5t19 -23t23 -19t20.5 -7.5q8 0 20 7.5t23 19t18.5 23t7.5 20.5z" />
<glyph unicode="/" horiz-adv-x="703" d="M683 715l-66 55l-596 -735l69 -56z" />
<glyph unicode="0" horiz-adv-x="631" d="M586 365q0 99 -23.5 170t-61.5 117.5t-86.5 68t-98.5 21.5q-52 0 -101 -21.5t-86.5 -68t-60 -117.5t-22.5 -170t22.5 -171t60 -118t86.5 -68t101 -22q50 0 98.5 22t86.5 68t61.5 118t23.5 171zM481 365q0 -80 -14 -134.5t-37.5 -88.5t-53 -48.5t-60.5 -14.5t-61 14.5 t-53 48.5t-37.5 88.5t-14.5 134.5q0 78 14.5 133t37.5 88.5t53 48.5t61 15t60.5 -15t53 -48.5t37.5 -88.5t14 -133z" />
<glyph unicode="1" horiz-adv-x="377" d="M275 0v742l-235 -22l-19 -86l150 15v-649h104z" />
<glyph unicode="2" horiz-adv-x="548" d="M506 0v89h-291q31 31 74.5 81t83 108.5t67 120.5t27.5 114q0 56 -17.5 98.5t-49.5 71.5t-75 44t-95 15q-51 0 -94.5 -14t-79.5 -38l22 -92q35 23 71 38t81 15q56 0 94.5 -33t38.5 -102q0 -44 -25.5 -99.5t-70 -118.5t-104.5 -134t-130 -143v-21h473z" />
<glyph unicode="3" horiz-adv-x="482" d="M437 215q0 48 -14.5 86t-36.5 64.5t-49.5 43t-54.5 23.5q17 5 34 18t30.5 32.5t22 44t8.5 51.5q0 36 -14.5 66.5t-40.5 52t-61 33.5t-77 12q-40 0 -73 -8.5t-67 -26.5l19 -88q33 19 58.5 26t58.5 7q40 0 67 -22t27 -61q0 -21 -10.5 -39t-28.5 -33.5t-42.5 -26.5 t-53.5 -16l21 -86q5 1 11 1h9q31 0 59 -11t48.5 -30.5t32.5 -45.5t12 -54q0 -39 -14.5 -67.5t-38 -46.5t-53 -26.5t-58.5 -8.5q-32 0 -66.5 8.5t-66.5 26.5l24 -105q29 -11 57.5 -16.5t55.5 -5.5q64 0 113 17.5t82.5 48t51.5 72t18 90.5z" />
<glyph unicode="4" horiz-adv-x="565" d="M513 195v84h-85v448h-70l-343 -450l18 -82h291v-195h104v195h85zM325 545q-1 -24 -1 -46v-43v-177h-201l135 176q16 22 32.5 44t32.5 47z" />
<glyph unicode="5" horiz-adv-x="513" d="M467 222q0 56 -19 101t-53 76.5t-79 48t-96 16.5q-7 0 -15 -0.5t-15 -1.5l5 176h199l20 89h-318l-12 -374q27 10 56.5 15t69.5 5q31 0 58 -10.5t48 -29.5t34 -46.5t13 -63.5q0 -34 -13 -60.5t-34.5 -45.5t-49.5 -28.5t-60 -9.5q-37 0 -75.5 9t-74.5 31l24 -105 q21 -12 55.5 -19.5t76.5 -7.5q63 0 110.5 19t79.5 51.5t48.5 75.5t16.5 89z" />
<glyph unicode="6" horiz-adv-x="580" d="M535 225q0 49 -17.5 91.5t-48 74.5t-73.5 50t-95 18q-37 0 -66.5 -9.5t-48.5 -28.5q40 82 114.5 156t185.5 128l-103 47q-73 -37 -135 -93t-107 -122.5t-70 -139.5t-25 -146q0 -64 20 -113.5t54 -82.5t78.5 -50.5t94.5 -17.5q52 0 96 18t76.5 50t51 75t18.5 95zM430 223 q0 -33 -10.5 -59t-28.5 -45.5t-42.5 -29.5t-53.5 -10q-28 0 -54 12t-45.5 32.5t-31.5 47.5t-12 58v22q0 12 2 20q16 54 53.5 75.5t86.5 21.5q30 0 55 -10.5t42.5 -30.5t28 -46.5t10.5 -57.5z" />
<glyph unicode="7" horiz-adv-x="526" d="M518 727h-483v-89h334l-276 -638h112z" />
<glyph unicode="8" horiz-adv-x="577" d="M532 202q0 41 -14.5 74.5t-35.5 58.5t-45 41.5t-43 23.5q19 8 37.5 22.5t34 34.5t25 45.5t9.5 54.5q0 41 -15.5 75t-44 58.5t-67.5 38t-85 13.5q-45 0 -84 -13.5t-67 -38t-43.5 -58.5t-15.5 -75q0 -29 9 -55.5t24.5 -47t34 -34.5t38.5 -22q-19 -7 -43 -23.5t-45 -41 t-35.5 -57.5t-14.5 -74q0 -52 19 -91.5t52 -67t77 -42.5t94 -15q49 0 93.5 15t78.5 42.5t53 67t19 91.5zM401 555q0 -36 -28 -66.5t-79 -45.5q-51 14 -83 44.5t-32 67.5q0 43 32.5 71t78.5 28q47 0 79 -28t32 -71zM428 205q0 -27 -11.5 -50.5t-31 -40.5t-45.5 -26.5 t-55 -9.5t-54.5 9.5t-45 26.5t-30.5 40.5t-11 50.5q0 29 12.5 51.5t32.5 40.5t44.5 30.5t46.5 19.5q24 -7 50.5 -19t47.5 -30.5t35.5 -41t14.5 -51.5z" />
<glyph unicode="9" horiz-adv-x="580" d="M535 479q0 64 -20 113t-54.5 82.5t-79.5 50.5t-94 17q-52 0 -96 -17.5t-76.5 -49.5t-50.5 -75.5t-18 -94.5q0 -49 17 -92t47.5 -74.5t73.5 -50t95 -18.5q37 0 66.5 10t48.5 29q-39 -82 -114 -156t-185 -128l102 -48q73 38 135 94t107 122.5t70.5 139.5t25.5 146zM429 500 v-21q0 -13 -3 -21q-16 -53 -53.5 -75t-86.5 -22q-30 0 -55 11t-43 31t-28 46t-10 57q0 32 10.5 59t28.5 46t42.5 29.5t53.5 10.5t54.5 -12t45.5 -32.5t32 -48t12 -58.5z" />
<glyph unicode=":" horiz-adv-x="224" d="M181 459q0 8 -7.5 20t-18.5 23.5t-23 19t-20 7.5q-9 0 -20.5 -7.5t-23 -19t-19 -23.5t-7.5 -20t7.5 -19.5t19 -22.5t23 -18.5t20.5 -7.5q8 0 20 7.5t23 18.5t18.5 22.5t7.5 19.5zM181 57q0 8 -7.5 20t-18.5 23t-23 18t-20 7q-9 0 -20.5 -7t-23 -18t-19 -23t-7.5 -20 q0 -9 7.5 -20.5t19 -23t23 -19t20.5 -7.5q8 0 20 7.5t23 19t18.5 23t7.5 20.5z" />
<glyph unicode=";" horiz-adv-x="224" d="M181 459q0 8 -7.5 20t-18.5 23.5t-23 19t-20 7.5q-9 0 -20.5 -7.5t-23 -19t-19 -23.5t-7.5 -20t7.5 -19.5t19 -22.5t23 -18.5t20.5 -7.5q8 0 20 7.5t23 18.5t18.5 22.5t7.5 19.5zM181 57q0 10 -8 22t-19.5 22.5t-23 17t-18.5 6.5q-8 0 -20 -7t-23 -17.5t-19 -22.5t-8 -21 q0 -7 6 -16t14.5 -17t18 -14.5t17.5 -7.5q-5 -26 -24 -65.5t-50 -78.5l40 -7q20 18 40.5 46.5t38 58t28 57t10.5 44.5z" />
<glyph unicode="&#x3c;" horiz-adv-x="408" d="M317 177l-138 139l138 139l-67 66l-206 -205l206 -205z" />
<glyph unicode="=" horiz-adv-x="517" d="M472 369v89h-426v-89h426zM472 173v89h-426v-89h426z" />
<glyph unicode="&#x3e;" horiz-adv-x="408" d="M364 316l-206 205l-67 -66l138 -139l-138 -139l67 -66z" />
<glyph unicode="?" horiz-adv-x="446" d="M401 585q0 49 -16.5 87t-46 64.5t-70.5 40t-89 13.5t-88 -14t-66 -40l21 -94q27 26 58.5 41.5t75.5 15.5q27 0 48.5 -10t35.5 -24t21.5 -32.5t7.5 -35.5q0 -45 -19.5 -78t-54.5 -70q-34 -36 -53 -85t-19 -101q0 -19 2.5 -32t5.5 -28l86 -19q-3 12 -3.5 27.5t-0.5 38.5 q0 33 13 66.5t45 67.5q47 51 76.5 97.5t29.5 103.5zM272 57q0 8 -7 20t-18 23t-23 18t-21 7t-20.5 -7t-23 -18t-19 -23t-7.5 -20q0 -9 7.5 -20.5t19 -23t23 -19t20.5 -7.5t21 7.5t23 19t18 23t7 20.5z" />
<glyph unicode="@" horiz-adv-x="873" d="M828 437q0 62 -23 118t-65 98t-102.5 66t-137.5 24q-93 0 -175.5 -34t-145 -94t-98 -140.5t-35.5 -171.5q0 -72 23 -130t63.5 -99t96 -64t119.5 -23q45 0 75 9.5t43 19.5l23 90q-23 -19 -56 -29.5t-69 -10.5q-46 0 -87.5 13.5t-74 43t-52 74t-19.5 106.5q0 77 29 143.5 t78.5 115.5t115.5 77t138 28q57 0 104 -17t80 -47.5t51.5 -72.5t18.5 -91q0 -43 -13.5 -80.5t-32 -64.5t-41 -42.5t-40.5 -15.5q-22 0 -22 34q0 8 1 13l39 243q-16 16 -48.5 30t-77.5 14q-49 0 -96.5 -19t-85 -54t-60.5 -84t-23 -109q0 -36 11.5 -64.5t30 -47.5t41.5 -28.5 t47 -9.5q52 0 90 20.5t58 58.5q3 -40 27 -59.5t53 -19.5q55 0 96.5 26.5t70 68.5t43 91.5t14.5 96.5zM539 483l-16 -93q-12 -74 -47 -115.5t-72 -41.5q-30 0 -47.5 18.5t-17.5 55.5q0 40 13.5 73.5t36.5 58t52.5 38t62.5 13.5q11 0 20.5 -2t14.5 -5z" />
<glyph unicode="A" horiz-adv-x="705" d="M683 0l-310 738h-40l-310 -738h108l79 188h282l79 -188h112zM455 276h-208l72 178q8 18 16.5 42t14.5 47h2q7 -23 15 -47t16 -42z" />
<glyph unicode="B" horiz-adv-x="593" d="M548 221q0 35 -11 66t-30 56t-43.5 42t-49.5 24q32 14 49.5 51t17.5 77q0 48 -18 84t-47.5 59t-65.5 35t-73 12h-203v-727h236q42 0 85 13t77 40.5t55 69t21 98.5zM369 537q0 -50 -33 -72.5t-77 -22.5h-75v192h75q44 0 77 -23t33 -74zM435 221q0 -33 -12.5 -57.5t-33 -40 t-47 -23t-55.5 -7.5h-103v256h103q29 0 55.5 -8t47 -23.5t33 -40t12.5 -56.5z" />
<glyph unicode="C" horiz-adv-x="683" d="M652 694q-33 20 -86 34t-128 14q-69 0 -138.5 -24t-126 -71t-92 -118t-35.5 -165t35 -164.5t91.5 -118t126.5 -71.5t139 -24q70 0 113 8.5t77 27.5l23 106q-34 -21 -85 -33.5t-116 -12.5q-54 0 -106.5 17.5t-94.5 52.5t-67 88t-25 124t26 124.5t67.5 88t94 52t105.5 17.5 q29 0 55.5 -4.5t50.5 -11t43.5 -15.5t33.5 -17z" />
<glyph unicode="D" horiz-adv-x="736" d="M691 364q0 87 -33 155t-88 114t-125.5 70t-146.5 24h-224v-727h224q76 0 146.5 24t125.5 70t88 114t33 156zM578 364q0 -70 -24 -120.5t-64.5 -84.5t-95 -50t-116.5 -16h-94v541h94q62 0 116.5 -16.5t95 -49.5t64.5 -84t24 -120z" />
<glyph unicode="E" horiz-adv-x="530" d="M506 0v95h-321v223h236v95h-236v220h281v94h-392v-727h432z" />
<glyph unicode="F" horiz-adv-x="492" d="M477 633v94h-403v-727h111v318h246v95h-246v220h292z" />
<glyph unicode="G" horiz-adv-x="776" d="M710 65v295h-272v-89h167v-151q-53 -38 -154 -38q-55 0 -108 17t-94.5 52.5t-66.5 88t-25 123.5t26 124t67.5 88.5t94 53t105.5 17.5q58 0 110 -16t92 -42l21 96q-40 26 -100 42t-135 16q-69 0 -138.5 -24t-126 -71t-92 -118t-35.5 -165q0 -93 34.5 -163.5t91 -118 t127.5 -72t146 -24.5q82 0 147.5 18.5t117.5 60.5z" />
<glyph unicode="H" horiz-adv-x="744" d="M670 0v727h-110v-314h-375v314h-111v-727h111v318h375v-318h110z" />
<glyph unicode="I" horiz-adv-x="292" d="M202 0v727h-111v-727h111z" />
<glyph unicode="J" horiz-adv-x="310" d="M219 144v583h-111v-572q0 -104 -46 -159t-132 -71l72 -73q37 7 75.5 27.5t70 56.5t51.5 87.5t20 120.5z" />
<glyph unicode="K" horiz-adv-x="620" d="M606 0l-308 368l302 359h-128l-287 -343v343h-111v-727h111v341l286 -341h135z" />
<glyph unicode="L" horiz-adv-x="510" d="M505 0v95h-320v632h-111v-727h431z" />
<glyph unicode="M" horiz-adv-x="946" d="M895 0l-65 727h-68l-192 -374q-23 -45 -47.5 -94.5t-41.5 -92.5h-2q-18 43 -43.5 93.5t-47.5 93.5l-194 374h-69l-62 -727h98l28 328q3 33 6 77t6 86h2q19 -40 40 -85t41 -81l171 -331h41l169 331q18 35 41.5 82.5t40.5 86.5h2q2 -40 5 -84.5t6 -81.5l30 -328h105z" />
<glyph unicode="N" horiz-adv-x="800" d="M726 -16v743h-110v-344v-84q0 -45 2 -87l-2 -1q-18 20 -37.5 43.5t-40 46.5t-40 45t-35.5 39l-313 342h-76v-727h111v365v86q0 46 -3 96l3 1q37 -44 81.5 -95.5t85.5 -95.5l341 -373h33z" />
<glyph unicode="O" horiz-adv-x="861" d="M816 365q0 88 -33 158t-87 118.5t-123 74.5t-142 26t-142 -26t-123 -74.5t-87 -118.5t-33 -158q0 -89 33 -159t87 -118.5t123 -75t142 -26.5t142 26.5t123 75t87 118.5t33 159zM705 365q0 -67 -24 -120t-63.5 -89t-88.5 -55t-98 -19q-50 0 -99 19t-88 55t-63 89t-24 120 t24 119.5t63 88.5t88 54.5t99 18.5q49 0 98 -18.5t88.5 -54.5t63.5 -88.5t24 -119.5z" />
<glyph unicode="P" horiz-adv-x="532" d="M512 523q0 52 -20 90.5t-51.5 63.5t-70 37.5t-77.5 12.5h-219v-727h110v319h109q39 0 77.5 12.5t70 37.5t51.5 64t20 90zM399 523q0 -28 -10.5 -49t-28 -35t-40 -20t-46.5 -6h-90v221h90q24 0 46.5 -7t40 -20.5t28 -34t10.5 -49.5z" />
<glyph unicode="Q" horiz-adv-x="861" d="M863 -48q-22 -9 -40 -11.5t-38 -2.5q-27 0 -60.5 7t-74.5 27q-34 15 -54 24.5t-36 12.5v2q52 15 98.5 47.5t81.5 78t55.5 103.5t20.5 125q0 88 -33 158t-87 118.5t-123 74.5t-142 26t-142 -26t-123 -74.5t-87 -118.5t-33 -158q0 -83 29 -150t77.5 -115.5t111 -77 t129.5 -33.5q30 -14 77.5 -37t100.5 -50q49 -26 92.5 -38t99.5 -12q17 0 30 3zM705 365q0 -67 -24 -120t-63.5 -89t-88.5 -55t-98 -19q-50 0 -99 19t-88 55t-63 89t-24 120t24 119.5t63 88.5t88 54.5t99 18.5q49 0 98 -18.5t88.5 -54.5t63.5 -88.5t24 -119.5z" />
<glyph unicode="R" horiz-adv-x="632" d="M644 0l-248 336q53 22 90 68t37 119q0 52 -20 90.5t-51 63.5t-70 37.5t-78 12.5h-230v-727h110v319h102l229 -319h129zM410 523q0 -28 -10 -49t-27.5 -35t-40.5 -20t-47 -6h-101v221h101q24 0 47 -7t40.5 -20.5t27.5 -34t10 -49.5z" />
<glyph unicode="S" horiz-adv-x="543" d="M499 205q0 46 -15 82.5t-43 64.5t-67 49.5t-87 37.5q-117 40 -117 113q0 40 32 69.5t88 29.5q44 0 83 -14.5t58 -27.5l22 91q-20 15 -62 28.5t-97 13.5q-58 0 -101.5 -16.5t-72 -44.5t-42.5 -64t-14 -73q0 -75 50 -129.5t148 -86.5q66 -21 96.5 -53t30.5 -80 q0 -51 -36.5 -82t-98.5 -31q-59 0 -112.5 19t-106.5 55l25 -121q29 -19 79 -34t110 -15q61 0 108 16t78.5 45t47.5 69t16 89z" />
<glyph unicode="T" horiz-adv-x="589" d="M584 633v94h-578v-94h233v-633h111v633h234z" />
<glyph unicode="U" horiz-adv-x="740" d="M667 256v471h-107v-459q0 -81 -47 -132.5t-141 -51.5q-95 0 -141 51.5t-46 132.5v459h-111v-471q0 -63 22.5 -113.5t62 -85t94 -53t117.5 -18.5q64 0 118.5 18.5t94 53t62 85t22.5 113.5z" />
<glyph unicode="V" horiz-adv-x="636" d="M625 727h-105l-135 -346q-16 -40 -30.5 -84t-29.5 -90h-2q-15 47 -30.5 91.5t-30.5 82.5l-134 346h-117l290 -737h35z" />
<glyph unicode="W" horiz-adv-x="1024" d="M1008 727h-102l-117 -335q-13 -34 -27.5 -78.5t-26.5 -87.5h-2q-13 44 -26 87.5t-25 78.5l-118 335h-94l-117 -335q-12 -36 -25.5 -79t-26.5 -87h-2q-12 44 -26.5 87t-27.5 79l-117 335h-111l258 -737h37l136 388q15 42 30.5 89t32.5 106h2q17 -59 32.5 -105.5 t30.5 -89.5l135 -388h38z" />
<glyph unicode="X" horiz-adv-x="654" d="M626 0l-232 375l222 352h-118l-114 -182q-12 -21 -26.5 -44.5t-25.5 -45.5h-3q-11 22 -25 46.5t-27 43.5l-113 182h-125l222 -359l-233 -368h118l121 192q12 20 28 46t29 49h2q13 -23 27.5 -48t28.5 -47l118 -192h126z" />
<glyph unicode="Y" horiz-adv-x="688" d="M677 727h-113l-146 -205q-14 -22 -33.5 -50.5t-35.5 -51.5h-2q-16 23 -34.5 51t-34.5 51l-146 205h-121l279 -392v-335h108v335z" />
<glyph unicode="Z" horiz-adv-x="579" d="M549 0v92h-362l-1 1q26 44 58 98.5t60 103.5l233 406v26h-485v-92h331l1 -1q-26 -42 -58.5 -98t-61.5 -105l-230 -405v-26h515z" />
<glyph unicode="[" horiz-adv-x="339" d="M306 -249v87h-141v873h141v87h-242v-1047h242z" />
<glyph unicode="\" horiz-adv-x="703" d="M683 35l-596 735l-66 -55l592 -736z" />
<glyph unicode="]" horiz-adv-x="339" d="M283 -249v1047h-242v-87h140v-873h-140v-87h242z" />
<glyph unicode="^" horiz-adv-x="422" d="M386 632q-53 22 -97 62.5t-77 88.5q-33 -48 -77.5 -88.5t-98.5 -62.5l65 -62q31 15 57.5 32t53.5 44q26 -27 53 -44t58 -32z" />
<glyph unicode="_" horiz-adv-x="570" d="M572 -263v89h-573v-89h573z" />
<glyph unicode="`" d="M355 642q-55 16 -116.5 46t-108.5 74l-23 -94q49 -33 93 -50t98 -32z" />
<glyph unicode="a" horiz-adv-x="519" d="M492 54q-25 4 -41.5 24t-16.5 55v209q0 46 -14.5 80.5t-41 58.5t-63 36t-79.5 12q-48 0 -90.5 -11t-78.5 -34l21 -85q28 19 66 30t76 11q55 0 78 -24.5t23 -59.5v-33l-121 -12q-33 -3 -64 -15t-54.5 -32.5t-37.5 -50t-14 -67.5q0 -31 11.5 -60t33 -50.5t52.5 -35 t69 -13.5q43 0 80.5 15t64.5 52q9 -24 29 -42.5t46 -24.5zM331 192q0 -24 -11 -46t-28.5 -37.5t-39 -24.5t-41.5 -9q-31 0 -51.5 21t-20.5 49t21 53t68 30l103 9v-45z" />
<glyph unicode="b" horiz-adv-x="583" d="M544 262q0 61 -23.5 110.5t-62 84t-90 53.5t-106.5 19q-33 0 -55 -5.5t-35 -11.5v300h-104v-777q31 -19 76 -33.5t105 -14.5q65 0 119.5 19t93 54.5t60.5 86.5t22 115zM439 262q0 -83 -50 -133t-140 -50q-30 0 -46.5 4t-30.5 9v323q14 9 37.5 16t52.5 7q32 0 64 -12 t57 -35t40.5 -55.5t15.5 -73.5z" />
<glyph unicode="c" horiz-adv-x="522" d="M486 490q-33 18 -73.5 28.5t-92.5 10.5q-53 0 -103.5 -18.5t-89.5 -53.5t-63 -85.5t-24 -113.5q0 -64 24 -113.5t63 -85t89.5 -54t103.5 -18.5q78 0 136 27l22 101q-44 -20 -78 -28t-71 -8q-35 0 -68.5 12.5t-59 35t-41 56.5t-15.5 75q0 42 15.5 75t40.5 56.5t58 36 t68 12.5q38 0 71 -8t68 -31z" />
<glyph unicode="d" horiz-adv-x="613" d="M545 0v812h-104v-317q-19 12 -52.5 23t-76.5 11q-58 0 -107.5 -20t-86 -56t-57.5 -86t-21 -109q0 -68 24 -118.5t61 -84t82 -51t86 -17.5q54 0 95 14t65 40l3 -41h89zM441 131q-20 -23 -53 -37.5t-76 -14.5q-34 0 -64.5 13t-53.5 36.5t-36 56.5t-13 73q0 41 13 74 t36 56.5t53.5 36.5t64.5 13q41 0 75 -14.5t54 -33.5v-259z" />
<glyph unicode="e" horiz-adv-x="559" d="M520 333q0 35 -15 70.5t-43.5 63.5t-70 45t-95.5 17q-44 0 -90 -17.5t-82.5 -52t-60 -85t-23.5 -116.5q0 -61 23 -110.5t61 -85.5t88 -55.5t105 -19.5q52 0 88.5 9.5t64.5 24.5l26 110q-37 -26 -76 -39t-89 -13q-46 0 -79.5 14.5t-56.5 38t-35 50.5t-13 51h311l58 58 q4 17 4 42zM415 331q0 -10 -1 -14h-260q4 27 19 49.5t35.5 39t45 25.5t48.5 9q25 0 46 -9.5t36 -25.5t23 -35.5t8 -38.5z" />
<glyph unicode="f" horiz-adv-x="381" d="M418 799q-41 17 -87 17q-113 0 -172.5 -62t-59.5 -190v-48h-88v-83h88v-433h104v433h132l17 83h-149v80q0 25 7 49.5t20.5 43t34 30t46.5 11.5q23 0 46.5 -5t42.5 -14z" />
<glyph unicode="g" horiz-adv-x="524" d="M491 -92q0 71 -38 111.5t-106 64.5l-142 49q-9 4 -12 9.5t-3 9.5q0 17 18 22.5t48 5.5q46 0 81.5 14.5t60.5 38t38 55.5t13 67q0 25 -5 45.5t-13 32.5q12 1 29 5t22 9l-19 85q-14 -6 -34 -12t-43 -6q-19 0 -36 2t-30 5q-12 3 -27.5 5.5t-36.5 2.5q-43 0 -78.5 -13 t-61 -36t-39.5 -55.5t-14 -69.5q0 -44 20 -79t56 -62q-22 -11 -40 -33.5t-18 -50.5l52 -52q-20 -7 -39.5 -21.5t-34.5 -34.5t-24 -45.5t-9 -54.5q0 -39 16.5 -73.5t47.5 -59.5t74 -38.5t97 -13.5q51 0 94 13t73 35.5t46.5 54t16.5 68.5zM355 355q0 -19 -8 -35.5t-22 -28.5 t-31.5 -18.5t-37.5 -6.5q-43 0 -71 26t-28 63q0 35 28 61.5t71 26.5q44 0 71.5 -26.5t27.5 -61.5zM396 -91q0 -16 -9 -31.5t-26 -28.5t-42.5 -21t-59.5 -8q-36 0 -62 8.5t-43.5 23.5t-26 33t-8.5 37q0 44 29.5 72.5t77.5 28.5l90 -26q40 -13 60 -36t20 -52z" />
<glyph unicode="h" horiz-adv-x="582" d="M520 0v342q0 43 -15 78t-41 59t-62 37t-78 13q-57 0 -90 -13.5t-62 -41.5v338h-104v-812h104v332q0 20 8 39.5t23.5 35t39 24.5t53.5 9q32 0 55 -9t38 -24.5t21 -35t6 -39.5v-332h104z" />
<glyph unicode="i" horiz-adv-x="275" d="M202 678q0 8 -7 19t-17 21t-21 17t-19 7t-19 -7t-20.5 -17t-16.5 -21t-7 -19t7 -18.5t16.5 -20.5t20.5 -16.5t19 -6.5t19 6.5t21 16.5t17 20.5t7 18.5zM190 0v516h-104v-516h104z" />
<glyph unicode="j" horiz-adv-x="275" d="M201 678q0 8 -7 19t-16.5 21t-20.5 17t-19 7t-19 -7t-21 -17t-17 -21t-7 -19t7 -18.5t17 -20.5t21 -16.5t19 -6.5t19 6.5t20.5 16.5t16.5 20.5t7 18.5zM190 -56v572h-104v-564q0 -67 -30.5 -103t-81.5 -47l66 -65q27 7 54.5 24.5t48.5 45t34 62t13 75.5z" />
<glyph unicode="k" horiz-adv-x="523" d="M522 0l-232 261l225 255h-123l-220 -246v542h-104v-812h104v243l216 -243h134z" />
<glyph unicode="l" horiz-adv-x="299" d="M259 50q-24 5 -47 27t-23 59v676h-103v-690q0 -38 11 -63.5t27 -42t34 -25t30 -12.5z" />
<glyph unicode="m" horiz-adv-x="891" d="M829 0v363q0 35 -14 65.5t-38.5 53t-58 35t-72.5 12.5q-71 0 -115 -21.5t-70 -51.5q-20 30 -58.5 51.5t-86.5 21.5q-61 0 -94.5 -16t-63.5 -48l-4 51h-91v-516h103v353q0 36 30 61t84 25q57 0 85.5 -23.5t28.5 -62.5v-353h104v353q0 36 29.5 61t84.5 25q56 0 84.5 -23.5 t28.5 -62.5v-353h104z" />
<glyph unicode="n" horiz-adv-x="576" d="M514 0v342q0 43 -15 78t-41 59t-62 37t-78 13q-60 0 -95 -16t-65 -48l-4 51h-91v-516h103v332q0 20 8 39.5t23.5 35t39 24.5t54.5 9q32 0 54.5 -9t37.5 -24.5t21 -35t6 -39.5v-332h104z" />
<glyph unicode="o" horiz-adv-x="628" d="M588 258q0 60 -21 109.5t-58 85.5t-86.5 56t-107.5 20q-59 0 -109 -20t-87 -56t-58 -85.5t-21 -109.5q0 -61 21 -110.5t58 -85t87 -55.5t109 -20q58 0 107.5 20t86.5 55.5t58 85t21 110.5zM483 258q0 -40 -13.5 -73t-37 -56.5t-53.5 -36.5t-64 -13q-35 0 -65.5 13 t-54 36.5t-37 56.5t-13.5 73q0 41 13.5 74t37 56.5t54 36.5t65.5 13q34 0 64 -13t53.5 -36.5t37 -56.5t13.5 -74z" />
<glyph unicode="p" horiz-adv-x="613" d="M573 259q0 67 -23.5 118t-61 84.5t-82.5 50.5t-86 17q-53 0 -94 -13.5t-65 -40.5l-4 41h-89v-779h104v285q20 -13 53.5 -24t75.5 -11q58 0 107.5 20t86 56t57.5 85.5t21 110.5zM469 259q0 -41 -13.5 -74t-36 -56.5t-53.5 -36.5t-65 -13q-41 0 -74.5 14t-54.5 34v258 q21 23 54 38t75 15q34 0 65 -13t53.5 -36.5t36 -56.5t13.5 -73z" />
<glyph unicode="q" horiz-adv-x="583" d="M515 -263v790h-25l-45 -27q-24 12 -60 20.5t-70 8.5q-54 0 -103.5 -17.5t-87.5 -52t-61 -84t-23 -113.5t23.5 -115t62 -86.5t90 -54.5t105.5 -19q30 0 52.5 5.5t38.5 12.5v-268h103zM412 101q-20 -11 -41.5 -16.5t-49.5 -5.5q-33 0 -64.5 12.5t-56 35.5t-40 57.5 t-15.5 77.5q0 40 13.5 72.5t37 55.5t54 35.5t65.5 12.5q32 0 56.5 -7.5t40.5 -16.5v-313z" />
<glyph unicode="r" horiz-adv-x="388" d="M372 435l-20 88q-58 0 -106.5 -20t-68.5 -68l-5 81h-98v-516h104v244q0 55 17 92t43 59t59.5 31t63.5 9h11z" />
<glyph unicode="s" horiz-adv-x="427" d="M388 141q0 68 -42.5 107t-119.5 68q-39 13 -57.5 28t-18.5 40q0 26 19.5 42t52.5 16q42 0 70.5 -10t46.5 -23l19 87q-15 9 -52.5 21t-82.5 12q-38 0 -70 -11t-55 -31t-35.5 -47t-12.5 -59q0 -63 41 -101.5t119 -67.5q36 -12 55 -30t19 -45q0 -26 -23 -44t-59 -18 q-48 0 -93.5 18.5t-77.5 45.5l24 -114q23 -16 61 -27t84 -11t81.5 13t59 34t35.5 49t12 58z" />
<glyph unicode="t" horiz-adv-x="410" d="M397 516h-183v159l-102 -54v-105h-102v-83h102v-284q0 -38 13 -67.5t36 -49t53.5 -30t65.5 -10.5q32 0 47 5l21 92q-23 -8 -57 -8q-32 0 -54.5 16.5t-22.5 48.5v287h164z" />
<glyph unicode="u" horiz-adv-x="576" d="M514 0v516h-104v-331q0 -21 -8 -40.5t-23 -34.5t-38.5 -24.5t-54.5 -9.5q-33 0 -55 9.5t-37 24.5t-21.5 34.5t-6.5 40.5v331h-103v-342q0 -43 14.5 -77.5t41 -58.5t62.5 -37.5t78 -13.5q60 0 95 15.5t64 48.5l5 -51h91z" />
<glyph unicode="v" horiz-adv-x="531" d="M503 516h-97l-92 -228q-11 -25 -22.5 -54t-20.5 -58h-2q-9 29 -20.5 58t-21.5 54l-94 228h-105l216 -525h42z" />
<glyph unicode="w" horiz-adv-x="808" d="M774 516h-93l-81 -218q-9 -24 -18.5 -51.5t-18.5 -57.5h-2q-9 30 -17 55.5t-18 53.5l-83 218h-75l-81 -218q-9 -26 -18 -54.5t-18 -54.5h-2q-8 26 -17.5 54t-18.5 55l-81 218h-98l195 -525h38l93 251q10 26 21 58t21 67h3q20 -67 43 -128l94 -248h37z" />
<glyph unicode="x" horiz-adv-x="507" d="M473 0l-159 266l151 250h-112l-66 -112q-9 -15 -16.5 -29t-15.5 -27h-2q-8 15 -15.5 28.5t-15.5 27.5l-66 112h-115l153 -255l-160 -261h112l71 119q6 12 16 28t18 32h2q8 -16 16.5 -32t16.5 -28l71 -119h116z" />
<glyph unicode="y" horiz-adv-x="546" d="M518 516h-100l-97 -238q-10 -26 -21.5 -54.5t-21.5 -58.5h-2q-12 32 -23 61.5t-22 55.5l-95 234h-108l193 -470q-23 -56 -47 -97t-50.5 -71t-57 -50t-65.5 -33l63 -64q37 17 72.5 42t68 62.5t63 90t59.5 124.5z" />
<glyph unicode="z" horiz-adv-x="478" d="M445 0v87h-257l-1 1q23 36 42.5 69t38.5 66l156 273v20h-376v-86h219l1 -1q-19 -30 -41 -67t-40 -69l-155 -272v-21h413z" />
<glyph unicode="{" horiz-adv-x="396" d="M363 -170q-71 0 -103 52.5t-32 152.5q0 77 -20 135.5t-68 103.5q48 46 68 103.5t20 134.5q0 100 32 152.5t103 52.5l-19 80q-58 0 -99 -21.5t-68 -60t-38.5 -89.5t-11.5 -110q0 -81 -23 -143.5t-81 -98.5q58 -37 81 -99t23 -143q0 -59 11.5 -110.5t38.5 -89.5t68 -60 t99 -22z" />
<glyph unicode="|" horiz-adv-x="271" d="M180 -263v1075h-89v-1075h89z" />
<glyph unicode="}" horiz-adv-x="396" d="M374 274q-58 36 -81 98.5t-23 143.5q0 59 -12 110t-38.5 89.5t-67.5 60t-100 21.5l-18 -80q71 0 103 -52.5t32 -152.5q0 -77 20 -134.5t67 -103.5q-47 -45 -67 -103.5t-20 -135.5q0 -100 -32 -152.5t-103 -52.5l18 -80q59 0 100 22t67.5 60t38.5 89.5t12 110.5 q0 81 23 143t81 99z" />
<glyph unicode="~" d="M390 370q-31 -18 -64 -30.5t-65 -18.5l-17 72q-46 -3 -80.5 -17.5t-74.5 -36.5l-21 -83q67 39 129 48l17 -69q46 3 80.5 16t74.5 40z" />
<glyph unicode="&#xa1;" horiz-adv-x="304" d="M218 673q0 8 -7.5 20t-19 23t-23.5 18.5t-20 7.5q-9 0 -20.5 -7.5t-23 -18.5t-18.5 -23t-7 -20t7 -20t18.5 -23t23 -18.5t20.5 -7.5q8 0 20 7.5t23.5 18.5t19 23t7.5 20zM213 -48l-18 572l-86 20l-18 -592h122z" />
<glyph unicode="&#xa2;" horiz-adv-x="522" d="M486 693q-29 16 -62.5 25.5t-74.5 12.5v109h-65v-110q-48 -6 -92 -27t-78 -55.5t-54 -81.5t-20 -105q0 -59 20 -105.5t54 -80.5t78 -55.5t92 -26.5v-100h65v99q58 3 107 25l22 101q-44 -20 -78 -28t-71 -8q-35 0 -68.5 12.5t-59 35t-41 56.5t-15.5 75q0 42 15.5 75 t40.5 56.5t58 36t68 12.5q38 0 71 -8t68 -31z" />
<glyph unicode="&#xa3;" horiz-adv-x="476" d="M450 78q-41 12 -87 17.5t-85 5.5q-31 0 -57 -2t-44 -4q12 24 21 70t9 113v54h158l7 65h-165v121q0 25 7.5 49.5t21.5 42.5t34.5 29.5t46.5 11.5q23 0 46 -4.5t43 -13.5l18 87q-41 18 -88 18q-113 0 -172 -62.5t-59 -189.5v-89h-88v-65h88v-45q0 -89 -17.5 -150 t-47.5 -104l77 -41q28 9 69 16t89 7q91 0 163 -28z" />
<glyph unicode="&#xa4;" horiz-adv-x="551" d="M506 127l-74 74q38 50 38 115q0 64 -36 113l72 73l-45 45l-73 -73q-49 36 -112 36q-65 0 -115 -38l-73 73l-46 -47l11.5 -11.5t25 -25.5t25 -25.5l11.5 -11.5q-16 -23 -24.5 -51t-8.5 -57q0 -63 35 -112l-74 -74l46 -47l74 74q24 -16 52.5 -25.5t60.5 -9.5q30 0 57.5 8.5 t51.5 24.5l74 -74zM410 316q0 -28 -10.5 -52.5t-29 -42.5t-43 -28.5t-51.5 -10.5t-51.5 10.5t-42.5 28.5t-28 42.5t-10 52.5q0 27 10 51t28 42.5t42.5 28.5t51.5 10t51.5 -10t43 -28.5t29 -42.5t10.5 -51z" />
<glyph unicode="&#xa5;" horiz-adv-x="688" d="M677 727h-110l-146 -205q-15 -22 -34.5 -50.5t-35.5 -51.5h-2q-16 23 -34.5 51t-34.5 51l-145 205h-124l200 -281h-76v-65h124l31 -47v-18h-155v-65h155v-251h108v251h154v65h-154v20l32 45h122v65h-75z" />
<glyph unicode="&#xa6;" horiz-adv-x="271" d="M180 342v470h-89v-470h89zM180 -263v469h-89v-469h89z" />
<glyph unicode="&#xa7;" horiz-adv-x="530" d="M471 -60q0 33 -10 62t-24 47l34 149l-277 290q-12 12 -18 31t-6 29q0 41 29.5 70.5t87.5 29.5q44 0 77.5 -10.5t65.5 -31.5l20 95q-30 17 -68.5 28t-96.5 11q-51 0 -91.5 -16t-68.5 -43t-43 -61.5t-15 -71.5q0 -32 10 -61.5t24 -47.5l-34 -149l278 -290q16 -16 20 -33.5 t4 -26.5q0 -41 -29.5 -70.5t-87.5 -29.5q-43 0 -77 11t-67 30l-18 -93q30 -18 68 -29t96 -11q53 0 93.5 16t67.5 43t41.5 61.5t14.5 71.5zM402 154l-17 -76l-249 258l16 76z" />
<glyph unicode="&#xa8;" d="M374 645q0 8 -6.5 18.5t-15.5 19.5t-19 16t-18 7t-18.5 -7t-19.5 -16t-15.5 -19.5t-6.5 -18.5q0 -7 6.5 -17t15.5 -19t19.5 -16t18.5 -7t18 7t19 16t15.5 19t6.5 17zM200 645q0 8 -6.5 18.5t-15.5 19.5t-19.5 16t-18.5 7q-7 0 -17 -7t-19 -16t-16 -19.5t-7 -18.5 q0 -7 7 -17t16 -19t19 -16t17 -7q8 0 18.5 7t19.5 16t15.5 19t6.5 17z" />
<glyph unicode="&#xa9;" horiz-adv-x="683" d="M644 285q0 66 -23.5 121.5t-64 94.5t-95.5 61.5t-119 22.5t-118.5 -22.5t-95.5 -61.5t-64.5 -94.5t-23.5 -121.5t23.5 -121t64.5 -94.5t95.5 -62t118.5 -22.5t119 22.5t95.5 62t64 94.5t23.5 121zM580 285q0 -51 -17.5 -95.5t-49 -77t-75.5 -51t-96 -18.5q-54 0 -97 18.5 t-75 51t-49 77t-17 95.5t17 95t49 76.5t75 51.5t97 19q52 0 96 -19t75.5 -51.5t49 -76.5t17.5 -95zM469 412q-19 13 -44.5 22t-60.5 9q-32 0 -62.5 -11t-54.5 -32.5t-38 -51t-14 -65.5q0 -38 14 -68t38 -51.5t54.5 -32.5t62.5 -11q24 0 44.5 6t36.5 15l17 86 q-30 -22 -52 -27.5t-43 -5.5q-35 0 -61.5 23.5t-26.5 65.5q0 41 26.5 62.5t61.5 21.5q23 0 46.5 -5.5t42.5 -18.5z" />
<glyph unicode="&#xaa;" horiz-adv-x="426" d="M417 369q-52 8 -52 60v163q0 37 -12.5 65t-34.5 47t-51.5 28.5t-64.5 9.5q-39 0 -75 -8.5t-65 -27.5l19 -77q26 17 56.5 25.5t59.5 8.5q41 0 58 -17.5t17 -42.5v-23l-99 -9q-25 -2 -49 -13t-42.5 -28t-30 -40t-11.5 -49t9.5 -50t27.5 -42t43.5 -29t57.5 -11q33 0 62 11.5 t52 36.5q9 -17 25 -30t39 -18zM275 172q0 8 -6.5 18.5t-15.5 19.5t-19.5 16t-18.5 7q-6 0 -16.5 -7t-19.5 -16t-16 -19.5t-7 -18.5q0 -7 7 -17t16 -19t19.5 -16t16.5 -7q8 0 18.5 7t19.5 16t15.5 19t6.5 17zM272 474q0 -21 -8.5 -38.5t-21.5 -30t-29.5 -19t-31.5 -6.5 q-23 0 -37.5 16.5t-14.5 37.5q0 23 14.5 42.5t44.5 22.5l84 9v-34z" />
<glyph unicode="&#xab;" horiz-adv-x="501" d="M478 180q-38 73 -103 136q33 33 58 66t45 69l-60 60q-68 -113 -181 -195q57 -40 102 -89t79 -106zM238 180q-19 38 -44 70.5t-58 65.5q33 33 58 66t44 69l-59 60q-70 -114 -180 -195q57 -40 101.5 -89t78.5 -106z" />
<glyph unicode="&#xac;" horiz-adv-x="570" d="M502 154v206h-456v-89h364v-117h92z" />
<glyph unicode="&#xad;" horiz-adv-x="376" d="M331 271v89h-285v-89h285z" />
<glyph unicode="&#xae;" horiz-adv-x="547" d="M507 511q0 51 -18 93t-50 73t-74 48t-91 17q-51 0 -93 -17t-74 -48t-49.5 -73t-17.5 -93q0 -52 17.5 -94t49.5 -72.5t74 -48t93 -17.5q49 0 91 17.5t74 48t50 72.5t18 94zM455 511q0 -41 -13.5 -75.5t-38.5 -58.5t-58 -37.5t-71 -13.5q-40 0 -73 13.5t-58.5 37.5 t-39 58.5t-13.5 75.5t13.5 75t39 58t58.5 37.5t73 13.5q38 0 71 -13.5t58 -37.5t38.5 -58t13.5 -75zM394 398l-67 97q18 10 29.5 28.5t11.5 43.5q0 20 -8 36t-21 27t-30 17t-34 6h-89v-285h55v112h34l74 -113zM314 567q0 -39 -47 -39h-26v77h26q47 0 47 -38z" />
<glyph unicode="&#xaf;" d="M333 598v88h-210v-88h210z" />
<glyph unicode="&#xb0;" horiz-adv-x="283" d="M260 629q0 24 -9 45t-25.5 37t-38 25.5t-45.5 9.5q-23 0 -44.5 -9.5t-38 -25.5t-25.5 -37t-9 -45t9 -45t25.5 -37t38 -25t44.5 -9q24 0 45.5 9t38 25t25.5 37t9 45zM202 629q0 -26 -16.5 -42.5t-43.5 -16.5q-26 0 -42.5 16.5t-16.5 42.5q0 27 16.5 43.5t42.5 16.5 q27 0 43.5 -16.5t16.5 -43.5z" />
<glyph unicode="&#xb1;" horiz-adv-x="1008" d="M968 54q-25 4 -47.5 26.5t-22.5 58.5v626q-36 28 -79 39.5t-95 11.5q-57 0 -106 -18t-84.5 -53.5t-55.5 -87.5t-20 -119v-22h-255v62q0 25 7 49.5t20.5 43t34 29.5t46.5 11q37 0 67 -9.5t46 -19.5l21 86q-23 13 -52 21.5t-70 8.5q-106 0 -165 -64t-59 -179v-39h-88v-83 h88v-433h104v433h255v-433h104v433h97l18 83h-115v45q0 40 11.5 71t31.5 53t46.5 33.5t56.5 11.5q31 0 51 -3t36 -11v-591q0 -37 11 -63t27 -42.5t34 -25t30 -11.5z" />
<glyph unicode="&#xb2;" horiz-adv-x="422" d="M360 284v61h-173q68 62 108.5 126t40.5 117q0 70 -43 112t-130 42q-36 0 -67.5 -8.5t-54.5 -22.5l14 -61q24 13 50 22t58 9q48 0 74 -23.5t26 -66.5q0 -48 -55.5 -120.5t-169.5 -168.5v-18h322z" />
<glyph unicode="&#xb3;" horiz-adv-x="355" d="M309 430q0 25 -8.5 45.5t-21.5 36t-29.5 25.5t-31.5 15q23 10 38 32t15 50q0 51 -35 79.5t-94 28.5q-52 0 -95 -23l13 -61q43 23 82 23q23 0 39.5 -12.5t16.5 -34.5q0 -23 -25.5 -43.5t-59.5 -26.5l14 -61q5 2 12 2.5t10 0.5q39 0 63 -21.5t24 -54.5q0 -42 -29.5 -66.5 t-67.5 -24.5q-20 0 -47.5 6t-52.5 23l16 -70q16 -11 38.5 -16t45.5 -5q41 0 73 12.5t53.5 33.5t32.5 48.5t11 58.5z" />
<glyph unicode="&#xb4;" d="M348 668l-22 94q-48 -44 -109.5 -74t-116.5 -46l57 -56q54 15 98 32t93 50z" />
<glyph unicode="&#xb5;" horiz-adv-x="627" d="M583 0v516h-539v-516h539zM549 33h-207q-26 15 -42.5 36.5t-16.5 58.5q0 29 26.5 63t76.5 53l-274 194h437v-405zM293 33h-215v379l147 -309q9 -20 24 -38.5t44 -31.5z" />
<glyph unicode="&#xb6;" horiz-adv-x="501" d="M470 649v84h-194q-46 0 -87.5 -13t-73.5 -39.5t-51.5 -65.5t-19.5 -91q0 -51 19.5 -89.5t51.5 -64.5t73.5 -39t86.5 -13h10v-366q0 -67 -30 -103t-82 -47l66 -65q28 7 55 24.5t48.5 45t34.5 62t13 75.5v705h80z" />
<glyph unicode="&#xb7;" horiz-adv-x="224" d="M181 309q0 8 -7.5 20t-18.5 23t-23 18t-20 7q-9 0 -20.5 -7t-23 -18t-19 -23t-7.5 -20q0 -9 7.5 -20.5t19 -23t23 -19t20.5 -7.5q8 0 20 7.5t23 19t18.5 23t7.5 20.5z" />
<glyph unicode="&#xb8;" d="M340 -146q0 25 -10.5 46t-26.5 36.5t-36 24t-39 8.5l5 31h-44l-18 -98q9 3 18 3h18q23 0 42 -14.5t19 -39.5q0 -23 -16 -38t-37 -15t-38 4.5t-39 20.5l-13 -58q21 -14 42 -21t47 -7q23 0 45.5 7t40.5 22t29 36.5t11 51.5z" />
<glyph unicode="&#xb9;" horiz-adv-x="306" d="M209 284v458l-151 -15l-16 -68l94 9v-384h73z" />
<glyph unicode="&#xba;" horiz-adv-x="518" d="M481 526q0 47 -17 87t-46.5 68.5t-70 44.5t-87.5 16t-88 -16t-70.5 -44.5t-46.5 -68.5t-17 -87q0 -48 17 -88t46.5 -68.5t70.5 -44.5t88 -16t87.5 16t70 44.5t46.5 68.5t17 88zM318 172q0 8 -6 18.5t-15.5 19.5t-19.5 16t-18 7q-7 0 -17.5 -7t-19.5 -16t-15.5 -19.5 t-6.5 -18.5q0 -7 6.5 -17t15.5 -19t19.5 -16t17.5 -7q8 0 18 7t19.5 16t15.5 19t6 17zM390 526q0 -31 -10.5 -57.5t-28.5 -44.5t-41.5 -28.5t-49.5 -10.5t-50 10.5t-42.5 28.5t-28.5 44.5t-10 57.5t10 57t28.5 44t42.5 28.5t50 10.5t49.5 -10.5t41.5 -28.5t28.5 -44 t10.5 -57z" />
<glyph unicode="&#xbb;" horiz-adv-x="501" d="M503 316q-112 83 -180 195l-60 -60q20 -36 44.5 -69t57.5 -66q-33 -33 -57.5 -65.5t-44.5 -70.5l60 -59q34 57 79 106t101 89zM264 316q-112 82 -181 195l-59 -60q36 -70 103 -135q-34 -33 -59 -65.5t-44 -70.5l59 -59q34 57 79 106t102 89z" />
<glyph unicode="&#xbc;" horiz-adv-x="847" d="M783 133v62h-60v258h-65l-216 -257l16 -63h192v-133h73v133h60zM709 712l-40 34l-593 -731l41 -33zM209 284v458l-151 -15l-16 -68l94 9v-384h73zM653 356q-3 -28 -3 -54v-107h-127l88 106q13 15 22 28t18 28z" />
<glyph unicode="&#xbd;" horiz-adv-x="909" d="M856 0v62h-173q68 61 108.5 125t40.5 117q0 70 -43 112t-130 42q-37 0 -68 -8.5t-54 -21.5l14 -62q24 14 50 22.5t58 8.5q48 0 74 -23.5t26 -66.5q0 -48 -55.5 -120.5t-169.5 -168.5v-18h322zM709 712l-40 34l-593 -731l41 -33zM209 284v458l-151 -15l-16 -68l94 9v-384 h73z" />
<glyph unicode="&#xbe;" horiz-adv-x="877" d="M829 133v62h-61v258h-65l-215 -257l16 -63h191v-133h73v133h61zM755 712l-40 34l-593 -731l41 -33zM309 430q0 25 -8.5 45.5t-21.5 36t-29.5 25.5t-31.5 15q23 10 38 32t15 50q0 51 -35 79.5t-94 28.5q-52 0 -95 -23l13 -61q43 23 82 23q23 0 39.5 -12.5t16.5 -34.5 q0 -23 -25.5 -43.5t-59.5 -26.5l14 -61q5 2 12 2.5t10 0.5q39 0 63 -21.5t24 -54.5q0 -42 -29.5 -66.5t-67.5 -24.5q-20 0 -47.5 6t-52.5 23l16 -70q16 -11 38.5 -16t45.5 -5q41 0 73 12.5t53.5 33.5t32.5 48.5t11 58.5zM699 356q-4 -28 -4 -54v-107h-126l88 106 q12 15 21 28t19 28z" />
<glyph unicode="&#xbf;" horiz-adv-x="446" d="M314 673q0 8 -7.5 20t-19 23t-23.5 18.5t-20 7.5q-9 0 -21 -7.5t-23 -18.5t-18.5 -23t-7.5 -20t7.5 -20t18.5 -23t23 -18.5t21 -7.5q8 0 20 7.5t23.5 18.5t19 23t7.5 20zM422 -7l-21 95q-27 -26 -58.5 -41.5t-75.5 -15.5q-28 0 -49 9.5t-35 24t-21.5 32.5t-7.5 35 q0 46 19.5 79t54.5 69q34 37 53 86t19 100q0 20 -2.5 33t-5.5 28l-86 19q3 -12 3.5 -27.5t0.5 -38.5q0 -33 -13 -66.5t-45 -68.5q-47 -51 -76.5 -97t-29.5 -103q0 -49 16.5 -87.5t46 -64.5t70.5 -39.5t89 -13.5t88 14t66 39z" />
<glyph unicode="&#xc0;" horiz-adv-x="705" d="M683 0l-310 738h-40l-310 -738h108l79 188h282l79 -188h112zM455 276h-208l72 178q8 18 16.5 42t14.5 47h2q7 -23 15 -47t16 -42zM437 870q-55 16 -116.5 46t-108.5 74l-23 -94q49 -33 93 -50t98 -32z" />
<glyph unicode="&#xc1;" horiz-adv-x="705" d="M683 0l-310 738h-40l-310 -738h108l79 188h282l79 -188h112zM455 276h-208l72 178q8 18 16.5 42t14.5 47h2q7 -23 15 -47t16 -42zM512 896l-22 94q-48 -44 -109.5 -74t-116.5 -46l57 -56q54 15 98 32t93 50z" />
<glyph unicode="&#xc2;" horiz-adv-x="705" d="M683 0l-310 738h-40l-310 -738h108l79 188h282l79 -188h112zM455 276h-208l72 178q8 18 16.5 42t14.5 47h2q7 -23 15 -47t16 -42zM504 868q-45 19 -83 53t-66 75q-30 -41 -67.5 -75t-82.5 -53l54 -54q28 12 50.5 27t45.5 39q23 -24 45 -39t50 -27z" />
<glyph unicode="&#xc3;" horiz-adv-x="705" d="M683 0l-310 738h-40l-310 -738h108l79 188h282l79 -188h112zM455 276h-208l72 178q8 18 16.5 42t14.5 47h2q7 -23 15 -47t16 -42zM513 950q-31 -19 -64 -31.5t-65 -17.5l-17 71q-46 -3 -80.5 -17.5t-74.5 -36.5l-21 -82q67 38 129 48l17 -70q46 3 80.5 16.5t74.5 39.5z " />
<glyph unicode="&#xc4;" horiz-adv-x="705" d="M683 0l-310 738h-40l-310 -738h108l79 188h282l79 -188h112zM455 276h-208l72 178q8 18 16.5 42t14.5 47h2q7 -23 15 -47t16 -42zM502 873q0 8 -6.5 18.5t-15.5 19.5t-19 16t-18 7t-18.5 -7t-19.5 -16t-15.5 -19.5t-6.5 -18.5q0 -7 6.5 -17t15.5 -19t19.5 -16t18.5 -7 t18 7t19 16t15.5 19t6.5 17zM328 873q0 8 -6.5 18.5t-15.5 19.5t-19.5 16t-18.5 7q-7 0 -17 -7t-19 -16t-16 -19.5t-7 -18.5q0 -7 7 -17t16 -19t19 -16t17 -7q8 0 18.5 7t19.5 16t15.5 19t6.5 17z" />
<glyph unicode="&#xc5;" horiz-adv-x="705" d="M683 0l-310 738h-40l-310 -738h108l79 188h282l79 -188h112zM455 276h-208l72 178q8 18 16.5 42t14.5 47h2q7 -23 15 -47t16 -42zM483 931q0 27 -10.5 50t-28 41t-41.5 28t-50 10t-50 -10t-41.5 -28t-28 -41t-10.5 -50q0 -26 10.5 -49.5t28 -41t41.5 -27.5t50 -10t50 10 t41.5 27.5t28 41t10.5 49.5zM419 931q0 -29 -18 -47.5t-48 -18.5t-48 18.5t-18 47.5q0 30 18 48.5t48 18.5t48 -18.5t18 -48.5z" />
<glyph unicode="&#xc6;" horiz-adv-x="927" d="M904 0v95h-321v223h236v95h-236v220h281v94h-431l-422 -727h111l109 188h242v-188h431zM474 634q0 -34 -0.5 -58t-0.5 -62v-238h-196l135 236q16 28 31.5 60t28.5 63z" />
<glyph unicode="&#xc7;" horiz-adv-x="683" d="M652 694q-33 20 -86 34t-128 14q-69 0 -138.5 -24t-126 -71t-92 -118t-35.5 -165q0 -86 30 -152.5t79 -113.5t111 -74t126 -35l-16 -87q9 3 18 3h19q22 0 41 -14.5t19 -39.5q0 -23 -16 -38t-36 -15q-22 0 -39 4.5t-39 20.5l-12 -58q20 -14 41 -21t48 -7q22 0 44.5 7 t40.5 22t29 36.5t11 51.5q0 25 -10.5 46t-26.5 36.5t-35.5 24t-39.5 8.5l2 17q71 0 115 8.5t78 27.5l23 106q-34 -21 -85 -33.5t-116 -12.5q-54 0 -106.5 17.5t-94.5 52.5t-67 88t-25 124t26 124.5t67.5 88t94 52t105.5 17.5q29 0 55.5 -4.5t50.5 -11t43.5 -15.5t33.5 -17z " />
<glyph unicode="&#xc8;" horiz-adv-x="530" d="M506 0v95h-321v223h236v95h-236v220h281v94h-392v-727h432zM365 870q-55 16 -116.5 46t-108.5 74l-23 -94q49 -33 93 -50t98 -32z" />
<glyph unicode="&#xc9;" horiz-adv-x="530" d="M506 0v95h-321v223h236v95h-236v220h281v94h-392v-727h432zM443 896l-22 94q-48 -44 -109.5 -74t-116.5 -46l57 -56q54 15 98 32t93 50z" />
<glyph unicode="&#xca;" horiz-adv-x="530" d="M506 0v95h-321v223h236v95h-236v220h281v94h-392v-727h432zM436 868q-45 19 -83 53t-66 75q-30 -41 -67.5 -75t-82.5 -53l54 -54q28 12 50.5 27t45.5 39q23 -24 45 -39t50 -27z" />
<glyph unicode="&#xcb;" horiz-adv-x="530" d="M506 0v95h-321v223h236v95h-236v220h281v94h-392v-727h432zM429 873q0 8 -6.5 18.5t-15.5 19.5t-19 16t-18 7t-18.5 -7t-19.5 -16t-15.5 -19.5t-6.5 -18.5q0 -7 6.5 -17t15.5 -19t19.5 -16t18.5 -7t18 7t19 16t15.5 19t6.5 17zM255 873q0 8 -6.5 18.5t-15.5 19.5 t-19.5 16t-18.5 7q-7 0 -17 -7t-19 -16t-16 -19.5t-7 -18.5q0 -7 7 -17t16 -19t19 -16t17 -7q8 0 18.5 7t19.5 16t15.5 19t6.5 17z" />
<glyph unicode="&#xcc;" horiz-adv-x="292" d="M202 0v727h-111v-727h111zM249 870q-55 16 -116.5 46t-108.5 74l-23 -94q49 -33 93 -50t98 -32z" />
<glyph unicode="&#xcd;" horiz-adv-x="292" d="M202 0v727h-111v-727h111zM294 896l-22 94q-48 -44 -109.5 -74t-116.5 -46l57 -56q54 15 98 32t93 50z" />
<glyph unicode="&#xce;" horiz-adv-x="292" d="M202 0v727h-111v-727h111zM297 868q-45 19 -83 53t-66 75q-30 -41 -67.5 -75t-82.5 -53l54 -54q28 12 50.5 27t45.5 39q23 -24 45 -39t50 -27z" />
<glyph unicode="&#xcf;" horiz-adv-x="292" d="M202 0v727h-111v-727h111zM295 873q0 8 -6.5 18.5t-15.5 19.5t-19 16t-18 7t-18.5 -7t-19.5 -16t-15.5 -19.5t-6.5 -18.5q0 -7 6.5 -17t15.5 -19t19.5 -16t18.5 -7t18 7t19 16t15.5 19t6.5 17zM121 873q0 8 -6.5 18.5t-15.5 19.5t-19.5 16t-18.5 7q-7 0 -17 -7t-19 -16 t-16 -19.5t-7 -18.5q0 -7 7 -17t16 -19t19 -16t17 -7q8 0 18.5 7t19.5 16t15.5 19t6.5 17z" />
<glyph unicode="&#xd0;" horiz-adv-x="747" d="M702 364q0 87 -33 155t-87.5 114t-125.5 70t-147 24h-223v-314h-89v-84h89v-329h223q76 0 147 24t125.5 70t87.5 114t33 156zM589 364q0 -70 -23.5 -120.5t-64 -84.5t-95.5 -50t-116 -16h-95v236h126l18 84h-144v221h95q61 0 116 -16.5t95.5 -49.5t64 -84t23.5 -120z" />
<glyph unicode="&#xd1;" horiz-adv-x="800" d="M726 -16v743h-110v-344v-84q0 -45 2 -87l-2 -1q-18 20 -37.5 43.5t-40 46.5t-40 45t-35.5 39l-313 342h-76v-727h111v365v86q0 46 -3 96l3 1q37 -44 81.5 -95.5t85.5 -95.5l341 -373h33zM560 950q-31 -19 -64 -31.5t-65 -17.5l-17 71q-46 -3 -80.5 -17.5t-74.5 -36.5 l-21 -82q67 38 129 48l17 -70q46 3 80.5 16.5t74.5 39.5z" />
<glyph unicode="&#xd2;" horiz-adv-x="861" d="M816 365q0 88 -33 158t-87 118.5t-123 74.5t-142 26t-142 -26t-123 -74.5t-87 -118.5t-33 -158q0 -89 33 -159t87 -118.5t123 -75t142 -26.5t142 26.5t123 75t87 118.5t33 159zM705 365q0 -67 -24 -120t-63.5 -89t-88.5 -55t-98 -19q-50 0 -99 19t-88 55t-63 89t-24 120 t24 119.5t63 88.5t88 54.5t99 18.5q49 0 98 -18.5t88.5 -54.5t63.5 -88.5t24 -119.5zM507 870q-55 16 -116.5 46t-108.5 74l-23 -94q49 -33 93 -50t98 -32z" />
<glyph unicode="&#xd3;" horiz-adv-x="861" d="M816 365q0 88 -33 158t-87 118.5t-123 74.5t-142 26t-142 -26t-123 -74.5t-87 -118.5t-33 -158q0 -89 33 -159t87 -118.5t123 -75t142 -26.5t142 26.5t123 75t87 118.5t33 159zM705 365q0 -67 -24 -120t-63.5 -89t-88.5 -55t-98 -19q-50 0 -99 19t-88 55t-63 89t-24 120 t24 119.5t63 88.5t88 54.5t99 18.5q49 0 98 -18.5t88.5 -54.5t63.5 -88.5t24 -119.5zM586 896l-22 94q-48 -44 -109.5 -74t-116.5 -46l57 -56q54 15 98 32t93 50z" />
<glyph unicode="&#xd4;" horiz-adv-x="861" d="M816 365q0 88 -33 158t-87 118.5t-123 74.5t-142 26t-142 -26t-123 -74.5t-87 -118.5t-33 -158q0 -89 33 -159t87 -118.5t123 -75t142 -26.5t142 26.5t123 75t87 118.5t33 159zM705 365q0 -67 -24 -120t-63.5 -89t-88.5 -55t-98 -19q-50 0 -99 19t-88 55t-63 89t-24 120 t24 119.5t63 88.5t88 54.5t99 18.5q49 0 98 -18.5t88.5 -54.5t63.5 -88.5t24 -119.5zM582 868q-45 19 -83 53t-66 75q-30 -41 -67.5 -75t-82.5 -53l54 -54q28 12 50.5 27t45.5 39q23 -24 45 -39t50 -27z" />
<glyph unicode="&#xd5;" horiz-adv-x="861" d="M816 365q0 88 -33 158t-87 118.5t-123 74.5t-142 26t-142 -26t-123 -74.5t-87 -118.5t-33 -158q0 -89 33 -159t87 -118.5t123 -75t142 -26.5t142 26.5t123 75t87 118.5t33 159zM705 365q0 -67 -24 -120t-63.5 -89t-88.5 -55t-98 -19q-50 0 -99 19t-88 55t-63 89t-24 120 t24 119.5t63 88.5t88 54.5t99 18.5q49 0 98 -18.5t88.5 -54.5t63.5 -88.5t24 -119.5zM586 950q-31 -19 -64 -31.5t-65 -17.5l-17 71q-46 -3 -80.5 -17.5t-74.5 -36.5l-21 -82q67 38 129 48l17 -70q46 3 80.5 16.5t74.5 39.5z" />
<glyph unicode="&#xd6;" horiz-adv-x="861" d="M816 365q0 88 -33 158t-87 118.5t-123 74.5t-142 26t-142 -26t-123 -74.5t-87 -118.5t-33 -158q0 -89 33 -159t87 -118.5t123 -75t142 -26.5t142 26.5t123 75t87 118.5t33 159zM705 365q0 -67 -24 -120t-63.5 -89t-88.5 -55t-98 -19q-50 0 -99 19t-88 55t-63 89t-24 120 t24 119.5t63 88.5t88 54.5t99 18.5q49 0 98 -18.5t88.5 -54.5t63.5 -88.5t24 -119.5zM579 873q0 8 -6.5 18.5t-15.5 19.5t-19 16t-18 7t-18.5 -7t-19.5 -16t-15.5 -19.5t-6.5 -18.5q0 -7 6.5 -17t15.5 -19t19.5 -16t18.5 -7t18 7t19 16t15.5 19t6.5 17zM405 873 q0 8 -6.5 18.5t-15.5 19.5t-19.5 16t-18.5 7q-7 0 -17 -7t-19 -16t-16 -19.5t-7 -18.5q0 -7 7 -17t16 -19t19 -16t17 -7q8 0 18.5 7t19.5 16t15.5 19t6.5 17z" />
<glyph unicode="&#xd7;" horiz-adv-x="533" d="M453 174l-136 136l134 135l-47 47l-135 -134l-134 136l-49 -49l134 -135l-136 -136l49 -49l136 136l136 -134z" />
<glyph unicode="&#xd8;" horiz-adv-x="861" d="M816 365q0 89 -32.5 157.5t-86.5 118.5l66 81l-51 42l-67 -85q-48 31 -102.5 47t-111.5 16q-73 0 -142 -26t-123 -74.5t-87 -118.5t-33 -158q0 -89 32.5 -159t86.5 -119l-65 -81l50 -42l68 84q98 -62 213 -62q73 0 142 26.5t123 75t87 118.5t33 159zM705 365 q0 -67 -24 -120t-63.5 -89t-88.5 -55t-98 -19q-79 0 -149 45l350 433q33 -37 53 -85.5t20 -109.5zM581 601l-350 -432q-34 36 -54 84.5t-20 111.5q0 67 24 119.5t63 88.5t88 54.5t99 18.5q80 0 150 -45z" />
<glyph unicode="&#xd9;" horiz-adv-x="740" d="M667 256v471h-107v-459q0 -81 -47 -132.5t-141 -51.5q-95 0 -141 51.5t-46 132.5v459h-111v-471q0 -63 22.5 -113.5t62 -85t94 -53t117.5 -18.5q64 0 118.5 18.5t94 53t62 85t22.5 113.5zM446 870q-55 16 -116.5 46t-108.5 74l-23 -94q49 -33 93 -50t98 -32z" />
<glyph unicode="&#xda;" horiz-adv-x="740" d="M667 256v471h-107v-459q0 -81 -47 -132.5t-141 -51.5q-95 0 -141 51.5t-46 132.5v459h-111v-471q0 -63 22.5 -113.5t62 -85t94 -53t117.5 -18.5q64 0 118.5 18.5t94 53t62 85t22.5 113.5zM542 896l-22 94q-48 -44 -109.5 -74t-116.5 -46l57 -56q54 15 98 32t93 50z" />
<glyph unicode="&#xdb;" horiz-adv-x="740" d="M667 256v471h-107v-459q0 -81 -47 -132.5t-141 -51.5q-95 0 -141 51.5t-46 132.5v459h-111v-471q0 -63 22.5 -113.5t62 -85t94 -53t117.5 -18.5q64 0 118.5 18.5t94 53t62 85t22.5 113.5zM519 868q-45 19 -83 53t-66 75q-30 -41 -67.5 -75t-82.5 -53l54 -54 q28 12 50.5 27t45.5 39q23 -24 45 -39t50 -27z" />
<glyph unicode="&#xdc;" horiz-adv-x="740" d="M667 256v471h-107v-459q0 -81 -47 -132.5t-141 -51.5q-95 0 -141 51.5t-46 132.5v459h-111v-471q0 -63 22.5 -113.5t62 -85t94 -53t117.5 -18.5q64 0 118.5 18.5t94 53t62 85t22.5 113.5zM520 873q0 8 -6.5 18.5t-15.5 19.5t-19 16t-18 7t-18.5 -7t-19.5 -16t-15.5 -19.5 t-6.5 -18.5q0 -7 6.5 -17t15.5 -19t19.5 -16t18.5 -7t18 7t19 16t15.5 19t6.5 17zM346 873q0 8 -6.5 18.5t-15.5 19.5t-19.5 16t-18.5 7q-7 0 -17 -7t-19 -16t-16 -19.5t-7 -18.5q0 -7 7 -17t16 -19t19 -16t17 -7q8 0 18.5 7t19.5 16t15.5 19t6.5 17z" />
<glyph unicode="&#xdd;" horiz-adv-x="688" d="M677 727h-113l-146 -205q-14 -22 -33.5 -50.5t-35.5 -51.5h-2q-16 23 -34.5 51t-34.5 51l-146 205h-121l279 -392v-335h108v335zM500 896l-22 94q-48 -44 -109.5 -74t-116.5 -46l57 -56q54 15 98 32t93 50z" />
<glyph unicode="&#xde;" horiz-adv-x="532" d="M512 439q0 51 -20 90t-51.5 64t-70 37.5t-77.5 12.5h-109v84h-110v-727h110v235h109q39 0 77.5 12.5t70 37.5t51.5 64t20 90zM399 439q0 -29 -10.5 -50t-28 -34.5t-40 -20t-46.5 -6.5h-90v221h90q24 0 46.5 -6.5t40 -20.5t28 -34.5t10.5 -48.5z" />
<glyph unicode="&#xdf;" horiz-adv-x="609" d="M570 141q0 68 -42 107t-120 68q-39 13 -57 28t-18 40q0 37 41 53.5t114 16.5q7 23 13 57.5t6 66.5q0 62 -17 106t-46.5 74t-69 44t-83.5 14q-45 0 -85 -14.5t-69 -47t-46 -83.5t-17 -123v-548h104v576q0 30 7.5 58t21.5 49.5t35 34t49 12.5q27 0 48.5 -12t36.5 -31.5 t22.5 -43.5t7.5 -49q0 -17 -3 -33.5t-6 -31.5q-34 0 -64.5 -11t-52.5 -31t-34.5 -47t-12.5 -59q0 -63 41 -101.5t118 -67.5q37 -12 55.5 -30t18.5 -45q0 -26 -22.5 -44t-59.5 -18q-48 0 -85.5 15t-65.5 35v-99q22 -16 62.5 -27.5t86.5 -11.5q47 0 82 13t58.5 34t35.5 49 t12 58z" />
<glyph unicode="&#xe0;" horiz-adv-x="519" d="M492 54q-25 4 -41.5 24t-16.5 55v209q0 46 -14.5 80.5t-41 58.5t-63 36t-79.5 12q-48 0 -90.5 -11t-78.5 -34l21 -85q28 19 66 30t76 11q55 0 78 -24.5t23 -59.5v-33l-121 -12q-33 -3 -64 -15t-54.5 -32.5t-37.5 -50t-14 -67.5q0 -31 11.5 -60t33 -50.5t52.5 -35 t69 -13.5q43 0 80.5 15t64.5 52q9 -24 29 -42.5t46 -24.5zM331 192q0 -24 -11 -46t-28.5 -37.5t-39 -24.5t-41.5 -9q-31 0 -51.5 21t-20.5 49t21 53t68 30l103 9v-45zM303 650q-45 13 -97.5 39t-92.5 63l-20 -79q43 -29 79.5 -44t82.5 -26z" />
<glyph unicode="&#xe1;" horiz-adv-x="519" d="M492 54q-25 4 -41.5 24t-16.5 55v209q0 46 -14.5 80.5t-41 58.5t-63 36t-79.5 12q-48 0 -90.5 -11t-78.5 -34l21 -85q28 19 66 30t76 11q55 0 78 -24.5t23 -59.5v-33l-121 -12q-33 -3 -64 -15t-54.5 -32.5t-37.5 -50t-14 -67.5q0 -31 11.5 -60t33 -50.5t52.5 -35 t69 -13.5q43 0 80.5 15t64.5 52q9 -24 29 -42.5t46 -24.5zM331 192q0 -24 -11 -46t-28.5 -37.5t-39 -24.5t-41.5 -9q-31 0 -51.5 21t-20.5 49t21 53t68 30l103 9v-45zM359 673l-18 79q-40 -37 -93 -63t-99 -39l48 -47q47 13 84 27t78 43z" />
<glyph unicode="&#xe2;" horiz-adv-x="519" d="M492 54q-25 4 -41.5 24t-16.5 55v209q0 46 -14.5 80.5t-41 58.5t-63 36t-79.5 12q-48 0 -90.5 -11t-78.5 -34l21 -85q28 19 66 30t76 11q55 0 78 -24.5t23 -59.5v-33l-121 -12q-33 -3 -64 -15t-54.5 -32.5t-37.5 -50t-14 -67.5q0 -31 11.5 -60t33 -50.5t52.5 -35 t69 -13.5q43 0 80.5 15t64.5 52q9 -24 29 -42.5t46 -24.5zM331 192q0 -24 -11 -46t-28.5 -37.5t-39 -24.5t-41.5 -9q-31 0 -51.5 21t-20.5 49t21 53t68 30l103 9v-45zM364 649q-39 16 -71 45t-56 64q-25 -35 -57 -64t-71 -45l47 -46q23 11 42.5 23t38.5 33q19 -21 38 -33 t43 -23z" />
<glyph unicode="&#xe3;" horiz-adv-x="519" d="M492 54q-25 4 -41.5 24t-16.5 55v209q0 46 -14.5 80.5t-41 58.5t-63 36t-79.5 12q-48 0 -90.5 -11t-78.5 -34l21 -85q28 19 66 30t76 11q55 0 78 -24.5t23 -59.5v-33l-121 -12q-33 -3 -64 -15t-54.5 -32.5t-37.5 -50t-14 -67.5q0 -31 11.5 -60t33 -50.5t52.5 -35 t69 -13.5q43 0 80.5 15t64.5 52q9 -24 29 -42.5t46 -24.5zM331 192q0 -24 -11 -46t-28.5 -37.5t-39 -24.5t-41.5 -9q-31 0 -51.5 21t-20.5 49t21 53t68 30l103 9v-45zM386 718q-54 -32 -109 -42l-15 62q-39 -3 -68.5 -15.5t-63.5 -31.5l-17 -70q26 16 54.5 26.5t54.5 14.5 l15 -59q39 2 68.5 13.5t62.5 34.5z" />
<glyph unicode="&#xe4;" horiz-adv-x="519" d="M492 54q-25 4 -41.5 24t-16.5 55v209q0 46 -14.5 80.5t-41 58.5t-63 36t-79.5 12q-48 0 -90.5 -11t-78.5 -34l21 -85q28 19 66 30t76 11q55 0 78 -24.5t23 -59.5v-33l-121 -12q-33 -3 -64 -15t-54.5 -32.5t-37.5 -50t-14 -67.5q0 -31 11.5 -60t33 -50.5t52.5 -35 t69 -13.5q43 0 80.5 15t64.5 52q9 -24 29 -42.5t46 -24.5zM331 192q0 -24 -11 -46t-28.5 -37.5t-39 -24.5t-41.5 -9q-31 0 -51.5 21t-20.5 49t21 53t68 30l103 9v-45zM366 653q0 7 -5.5 15.5t-13 16.5t-16 14t-15.5 6t-16 -6t-16.5 -14t-13.5 -16.5t-6 -15.5q0 -5 6 -14 t13.5 -17t16.5 -13.5t16 -5.5t15.5 5.5t16 13.5t13 17t5.5 14zM218 653q0 7 -6 15.5t-13 16.5t-16 14t-15 6t-15 -6t-17 -14t-14 -16.5t-6 -15.5q0 -5 6 -14t14 -17t17 -13.5t15 -5.5t15 5.5t16 13.5t13 17t6 14z" />
<glyph unicode="&#xe5;" horiz-adv-x="519" d="M492 54q-25 4 -41.5 24t-16.5 55v209q0 46 -14.5 80.5t-41 58.5t-63 36t-79.5 12q-48 0 -90.5 -11t-78.5 -34l21 -85q28 19 66 30t76 11q55 0 78 -24.5t23 -59.5v-33l-121 -12q-33 -3 -64 -15t-54.5 -32.5t-37.5 -50t-14 -67.5q0 -31 11.5 -60t33 -50.5t52.5 -35 t69 -13.5q43 0 80.5 15t64.5 52q9 -24 29 -42.5t46 -24.5zM331 192q0 -24 -11 -46t-28.5 -37.5t-39 -24.5t-41.5 -9q-31 0 -51.5 21t-20.5 49t21 53t68 30l103 9v-45zM349 702q0 23 -8.5 43t-24 35t-35.5 23.5t-43 8.5t-42.5 -8.5t-35 -23.5t-24 -35t-8.5 -43t8.5 -42 t24 -34.5t35 -24t42.5 -8.5t43 8.5t35.5 24t24 34.5t8.5 42zM294 702q0 -24 -15.5 -40t-40.5 -16t-40.5 16t-15.5 40q0 25 15.5 41t40.5 16t40.5 -16t15.5 -41z" />
<glyph unicode="&#xe6;" horiz-adv-x="850" d="M811 333q0 35 -15 70.5t-43.5 63.5t-70 45t-95.5 17q-48 0 -96.5 -20t-85.5 -59q-27 40 -70.5 59.5t-98.5 19.5q-48 0 -90.5 -11t-78.5 -34l21 -85q28 19 66 30t76 11q55 0 78 -24.5t23 -59.5v-41l-118 -12q-36 -3 -68 -14t-55.5 -31t-36.5 -49t-13 -68q0 -30 11.5 -58 t33 -49t53 -34t72.5 -13q52 0 100.5 23t82.5 73q40 -45 95.5 -70.5t119.5 -25.5q52 0 88.5 9.5t63.5 24.5l27 110q-37 -26 -76.5 -39t-89.5 -13q-45 0 -79 14.5t-56 38t-34 50.5t-13 51h310l58 58q4 17 4 42zM706 331q0 -10 -1 -14h-259q4 27 18.5 49.5t35 39t45 25.5 t48.5 9q25 0 46 -9.5t36 -25.5t23 -35.5t8 -38.5zM331 192q0 -24 -11 -46t-28.5 -37.5t-39 -24.5t-41.5 -9q-31 0 -51.5 19t-20.5 45q0 33 21 54.5t71 26.5l100 9v-37z" />
<glyph unicode="&#xe7;" horiz-adv-x="522" d="M486 490q-33 18 -73.5 28.5t-92.5 10.5q-53 0 -103.5 -18.5t-89.5 -53.5t-63 -85.5t-24 -113.5q0 -57 19.5 -103.5t52 -80t75.5 -55t90 -28.5l-15 -74q9 2 16 2h16q20 0 35.5 -12.5t15.5 -33.5q0 -19 -13.5 -31.5t-30.5 -12.5q-19 0 -33.5 4t-32.5 17l-12 -50 q19 -12 36.5 -17.5t40.5 -5.5q19 0 38 6t34.5 18.5t24.5 31t9 43.5q0 21 -8.5 39t-22.5 31t-30.5 20.5t-33.5 7.5l3 13q13 0 31.5 1.5t37.5 4t38 8t35 13.5l22 101q-44 -20 -78 -28t-71 -8q-35 0 -68.5 12.5t-59 35t-41 56.5t-15.5 75q0 42 15.5 75t40.5 56.5t58 36t68 12.5 q38 0 71 -8t68 -31z" />
<glyph unicode="&#xe8;" horiz-adv-x="559" d="M520 333q0 35 -15 70.5t-43.5 63.5t-70 45t-95.5 17q-44 0 -90 -17.5t-82.5 -52t-60 -85t-23.5 -116.5q0 -61 23 -110.5t61 -85.5t88 -55.5t105 -19.5q52 0 88.5 9.5t64.5 24.5l26 110q-37 -26 -76 -39t-89 -13q-46 0 -79.5 14.5t-56.5 38t-35 50.5t-13 51h311l58 58 q4 17 4 42zM415 331q0 -10 -1 -14h-260q4 27 19 49.5t35.5 39t45 25.5t48.5 9q25 0 46 -9.5t36 -25.5t23 -35.5t8 -38.5zM378 650q-45 13 -97.5 39t-92.5 63l-19 -79q42 -29 78.5 -44t83.5 -26z" />
<glyph unicode="&#xe9;" horiz-adv-x="559" d="M520 333q0 35 -15 70.5t-43.5 63.5t-70 45t-95.5 17q-44 0 -90 -17.5t-82.5 -52t-60 -85t-23.5 -116.5q0 -61 23 -110.5t61 -85.5t88 -55.5t105 -19.5q52 0 88.5 9.5t64.5 24.5l26 110q-37 -26 -76 -39t-89 -13q-46 0 -79.5 14.5t-56.5 38t-35 50.5t-13 51h311l58 58 q4 17 4 42zM415 331q0 -10 -1 -14h-260q4 27 19 49.5t35.5 39t45 25.5t48.5 9q25 0 46 -9.5t36 -25.5t23 -35.5t8 -38.5zM430 673l-18 79q-40 -37 -93 -63t-99 -39l48 -47q47 13 84 27t78 43z" />
<glyph unicode="&#xea;" horiz-adv-x="559" d="M520 333q0 35 -15 70.5t-43.5 63.5t-70 45t-95.5 17q-44 0 -90 -17.5t-82.5 -52t-60 -85t-23.5 -116.5q0 -61 23 -110.5t61 -85.5t88 -55.5t105 -19.5q52 0 88.5 9.5t64.5 24.5l26 110q-37 -26 -76 -39t-89 -13q-46 0 -79.5 14.5t-56.5 38t-35 50.5t-13 51h311l58 58 q4 17 4 42zM415 331q0 -10 -1 -14h-260q4 27 19 49.5t35.5 39t45 25.5t48.5 9q25 0 46 -9.5t36 -25.5t23 -35.5t8 -38.5zM428 649q-39 16 -71 45t-56 64q-25 -35 -57 -64t-71 -45l47 -46q23 11 42.5 23t38.5 33q19 -21 38 -33t43 -23z" />
<glyph unicode="&#xeb;" horiz-adv-x="559" d="M520 333q0 35 -15 70.5t-43.5 63.5t-70 45t-95.5 17q-44 0 -90 -17.5t-82.5 -52t-60 -85t-23.5 -116.5q0 -61 23 -110.5t61 -85.5t88 -55.5t105 -19.5q52 0 88.5 9.5t64.5 24.5l26 110q-37 -26 -76 -39t-89 -13q-46 0 -79.5 14.5t-56.5 38t-35 50.5t-13 51h311l58 58 q4 17 4 42zM415 331q0 -10 -1 -14h-260q4 27 19 49.5t35.5 39t45 25.5t48.5 9q25 0 46 -9.5t36 -25.5t23 -35.5t8 -38.5zM423 653q0 7 -5.5 15.5t-13 16.5t-16 14t-15.5 6t-16 -6t-16.5 -14t-13.5 -16.5t-6 -15.5q0 -5 6 -14t13.5 -17t16.5 -13.5t16 -5.5t15.5 5.5t16 13.5 t13 17t5.5 14zM275 653q0 7 -6 15.5t-13 16.5t-16 14t-15 6t-15 -6t-17 -14t-14 -16.5t-6 -15.5q0 -5 6 -14t14 -17t17 -13.5t15 -5.5t15 5.5t16 13.5t13 17t6 14z" />
<glyph unicode="&#xec;" horiz-adv-x="275" d="M190 0v516h-104v-516h104zM210 650q-46 13 -98.5 39t-92.5 63l-19 -79q42 -29 78.5 -44t83.5 -26z" />
<glyph unicode="&#xed;" horiz-adv-x="275" d="M190 0v516h-104v-516h104zM276 673l-18 79q-40 -37 -93 -63t-99 -39l48 -47q47 13 84 27t78 43z" />
<glyph unicode="&#xee;" horiz-adv-x="275" d="M190 0v516h-104v-516h104zM266 649q-39 16 -71 45t-56 64q-25 -35 -57 -64t-71 -45l47 -46q23 11 42.5 23t38.5 33q19 -21 38 -33t43 -23z" />
<glyph unicode="&#xef;" horiz-adv-x="275" d="M190 0v516h-104v-516h104zM262 653q0 7 -5.5 15.5t-13 16.5t-16 14t-15.5 6t-16 -6t-16.5 -14t-13 -16.5t-5.5 -15.5q0 -5 5.5 -14t13 -17t16.5 -13.5t16 -5.5t15.5 5.5t16 13.5t13 17t5.5 14zM114 653q0 7 -5.5 15.5t-13 16.5t-16 14t-15.5 6q-6 0 -15 -6t-17 -14 t-13.5 -16.5t-5.5 -15.5q0 -5 5.5 -14t13.5 -17t17 -13.5t15 -5.5q7 0 15.5 5.5t16 13.5t13 17t5.5 14z" />
<glyph unicode="&#xf0;" horiz-adv-x="568" d="M523 238q0 22 -5.5 49.5t-12.5 43.5l-136 322l86 36l-31 77l-88 -35l-33 81h-108l49 -118l-95 -38l31 -78l97 39l55 -131q-26 -5 -57 -12t-58 -16q-38 -12 -70.5 -34.5t-56 -53t-37 -67.5t-13.5 -80q0 -50 18 -93t50.5 -75t77 -50t97.5 -18q49 0 93 17t76 49.5t51.5 78.5 t19.5 106zM420 237q0 -36 -11 -65.5t-30 -50t-44.5 -31.5t-54.5 -11t-53.5 10.5t-43.5 30t-29 46t-10 57.5q0 57 31 96.5t89 58.5q24 8 52 14t49 8q7 -16 16.5 -37.5t18 -45t14.5 -44.5t6 -36z" />
<glyph unicode="&#xf1;" horiz-adv-x="576" d="M514 0v342q0 43 -15 78t-41 59t-62 37t-78 13q-60 0 -95 -16t-65 -48l-4 51h-91v-516h103v332q0 20 8 39.5t23.5 35t39 24.5t54.5 9q32 0 54.5 -9t37.5 -24.5t21 -35t6 -39.5v-332h104zM422 718q-55 -32 -110 -42l-14 62q-39 -3 -68.5 -15.5t-64.5 -31.5l-17 -70 q26 16 54.5 26.5t55.5 14.5l14 -59q39 2 68.5 13.5t63.5 34.5z" />
<glyph unicode="&#xf2;" horiz-adv-x="628" d="M588 258q0 60 -21 109.5t-58 85.5t-86.5 56t-107.5 20q-59 0 -109 -20t-87 -56t-58 -85.5t-21 -109.5q0 -61 21 -110.5t58 -85t87 -55.5t109 -20q58 0 107.5 20t86.5 55.5t58 85t21 110.5zM483 258q0 -40 -13.5 -73t-37 -56.5t-53.5 -36.5t-64 -13q-35 0 -65.5 13 t-54 36.5t-37 56.5t-13.5 73q0 41 13.5 74t37 56.5t54 36.5t65.5 13q34 0 64 -13t53.5 -36.5t37 -56.5t13.5 -74zM384 650q-45 13 -97.5 39t-92.5 63l-20 -79q43 -29 79.5 -44t82.5 -26z" />
<glyph unicode="&#xf3;" horiz-adv-x="628" d="M588 258q0 60 -21 109.5t-58 85.5t-86.5 56t-107.5 20q-59 0 -109 -20t-87 -56t-58 -85.5t-21 -109.5q0 -61 21 -110.5t58 -85t87 -55.5t109 -20q58 0 107.5 20t86.5 55.5t58 85t21 110.5zM483 258q0 -40 -13.5 -73t-37 -56.5t-53.5 -36.5t-64 -13q-35 0 -65.5 13 t-54 36.5t-37 56.5t-13.5 73q0 41 13.5 74t37 56.5t54 36.5t65.5 13q34 0 64 -13t53.5 -36.5t37 -56.5t13.5 -74zM464 673l-18 79q-40 -37 -93 -63t-99 -39l48 -47q47 13 84 27t78 43z" />
<glyph unicode="&#xf4;" horiz-adv-x="628" d="M588 258q0 60 -21 109.5t-58 85.5t-86.5 56t-107.5 20q-59 0 -109 -20t-87 -56t-58 -85.5t-21 -109.5q0 -61 21 -110.5t58 -85t87 -55.5t109 -20q58 0 107.5 20t86.5 55.5t58 85t21 110.5zM483 258q0 -40 -13.5 -73t-37 -56.5t-53.5 -36.5t-64 -13q-35 0 -65.5 13 t-54 36.5t-37 56.5t-13.5 73q0 41 13.5 74t37 56.5t54 36.5t65.5 13q34 0 64 -13t53.5 -36.5t37 -56.5t13.5 -74zM439 649q-39 16 -71 45t-56 64q-25 -35 -57 -64t-70 -45l46 -46q23 11 42.5 23t38.5 33q20 -21 38.5 -33t42.5 -23z" />
<glyph unicode="&#xf5;" horiz-adv-x="628" d="M588 258q0 60 -21 109.5t-58 85.5t-86.5 56t-107.5 20q-59 0 -109 -20t-87 -56t-58 -85.5t-21 -109.5q0 -61 21 -110.5t58 -85t87 -55.5t109 -20q58 0 107.5 20t86.5 55.5t58 85t21 110.5zM483 258q0 -40 -13.5 -73t-37 -56.5t-53.5 -36.5t-64 -13q-35 0 -65.5 13 t-54 36.5t-37 56.5t-13.5 73q0 41 13.5 74t37 56.5t54 36.5t65.5 13q34 0 64 -13t53.5 -36.5t37 -56.5t13.5 -74zM451 718q-54 -32 -109 -42l-15 62q-39 -3 -68.5 -15.5t-63.5 -31.5l-17 -70q26 16 54.5 26.5t54.5 14.5l15 -59q39 2 68.5 13.5t62.5 34.5z" />
<glyph unicode="&#xf6;" horiz-adv-x="628" d="M588 258q0 60 -21 109.5t-58 85.5t-86.5 56t-107.5 20q-59 0 -109 -20t-87 -56t-58 -85.5t-21 -109.5q0 -61 21 -110.5t58 -85t87 -55.5t109 -20q58 0 107.5 20t86.5 55.5t58 85t21 110.5zM483 258q0 -40 -13.5 -73t-37 -56.5t-53.5 -36.5t-64 -13q-35 0 -65.5 13 t-54 36.5t-37 56.5t-13.5 73q0 41 13.5 74t37 56.5t54 36.5t65.5 13q34 0 64 -13t53.5 -36.5t37 -56.5t13.5 -74zM441 653q0 7 -5.5 15.5t-13 16.5t-16 14t-15.5 6t-16 -6t-16.5 -14t-13 -16.5t-5.5 -15.5q0 -5 5.5 -14t13 -17t16.5 -13.5t16 -5.5t15.5 5.5t16 13.5t13 17 t5.5 14zM293 653q0 7 -5.5 15.5t-13 16.5t-16 14t-15.5 6q-6 0 -15 -6t-17 -14t-13.5 -16.5t-5.5 -15.5q0 -5 5.5 -14t13.5 -17t17 -13.5t15 -5.5q7 0 15.5 5.5t16 13.5t13 17t5.5 14z" />
<glyph unicode="&#xf7;" horiz-adv-x="517" d="M319 459q0 7 -6.5 17.5t-16 20t-19.5 16t-18 6.5t-18.5 -6.5t-20 -16t-16 -20t-6.5 -17.5q0 -8 6.5 -18t16 -19.5t20 -16t18.5 -6.5t18 6.5t19.5 16t16 19.5t6.5 18zM472 271v89h-426v-89h426zM319 173q0 7 -6.5 17.5t-16 20t-19.5 16t-18 6.5t-18.5 -6.5t-20 -16 t-16 -20t-6.5 -17.5q0 -8 6.5 -18t16 -20t20 -16t18.5 -6t18 6t19.5 16t16 20t6.5 18z" />
<glyph unicode="&#xf8;" horiz-adv-x="621" d="M588 258q0 61 -21.5 110.5t-58.5 85.5l48 59l-48 40l-50 -62q-30 19 -66.5 28.5t-76.5 9.5q-59 0 -109 -20t-87 -56t-58 -85.5t-21 -109.5q0 -61 20.5 -109.5t56.5 -84.5l-49 -61l48 -39l52 63q63 -40 147 -40q58 0 107.5 20t86.5 55.5t58 85t21 110.5zM483 258 q0 -40 -13.5 -73t-37 -56.5t-53.5 -36.5t-64 -13q-24 0 -46.5 6t-41.5 18l219 272q17 -23 27 -52t10 -65zM398 415l-217 -271q-17 22 -26.5 51.5t-9.5 62.5q0 41 13.5 74t37 56.5t54 36.5t65.5 13q22 0 43.5 -6.5t39.5 -16.5z" />
<glyph unicode="&#xf9;" horiz-adv-x="576" d="M514 0v516h-104v-331q0 -21 -8 -40.5t-23 -34.5t-38.5 -24.5t-54.5 -9.5q-33 0 -55 9.5t-37 24.5t-21.5 34.5t-6.5 40.5v331h-103v-342q0 -43 14.5 -77.5t41 -58.5t62.5 -37.5t78 -13.5q60 0 95 15.5t64 48.5l5 -51h91zM351 650q-45 13 -97.5 39t-92.5 63l-20 -79 q43 -29 79 -44t83 -26z" />
<glyph unicode="&#xfa;" horiz-adv-x="576" d="M514 0v516h-104v-331q0 -21 -8 -40.5t-23 -34.5t-38.5 -24.5t-54.5 -9.5q-33 0 -55 9.5t-37 24.5t-21.5 34.5t-6.5 40.5v331h-103v-342q0 -43 14.5 -77.5t41 -58.5t62.5 -37.5t78 -13.5q60 0 95 15.5t64 48.5l5 -51h91zM446 673l-18 79q-40 -37 -93 -63t-99 -39l48 -47 q47 13 84 27t78 43z" />
<glyph unicode="&#xfb;" horiz-adv-x="576" d="M514 0v516h-104v-331q0 -21 -8 -40.5t-23 -34.5t-38.5 -24.5t-54.5 -9.5q-33 0 -55 9.5t-37 24.5t-21.5 34.5t-6.5 40.5v331h-103v-342q0 -43 14.5 -77.5t41 -58.5t62.5 -37.5t78 -13.5q60 0 95 15.5t64 48.5l5 -51h91zM418 649q-38 16 -70 45t-56 64q-25 -35 -57 -64 t-71 -45l47 -46q23 11 42 23t39 33q19 -21 38 -33t43 -23z" />
<glyph unicode="&#xfc;" horiz-adv-x="576" d="M514 0v516h-104v-331q0 -21 -8 -40.5t-23 -34.5t-38.5 -24.5t-54.5 -9.5q-33 0 -55 9.5t-37 24.5t-21.5 34.5t-6.5 40.5v331h-103v-342q0 -43 14.5 -77.5t41 -58.5t62.5 -37.5t78 -13.5q60 0 95 15.5t64 48.5l5 -51h91zM416 653q0 7 -5.5 15.5t-13 16.5t-16 14t-15.5 6 t-16 -6t-16.5 -14t-13 -16.5t-5.5 -15.5q0 -5 5.5 -14t13 -17t16.5 -13.5t16 -5.5t15.5 5.5t16 13.5t13 17t5.5 14zM268 653q0 7 -6 15.5t-13 16.5t-15.5 14t-15.5 6q-6 0 -15 -6t-17 -14t-14 -16.5t-6 -15.5q0 -5 6 -14t14 -17t17 -13.5t15 -5.5q7 0 15.5 5.5t15.5 13.5 t13 17t6 14z" />
<glyph unicode="&#xfd;" horiz-adv-x="546" d="M518 516h-100l-97 -238q-10 -26 -21.5 -54.5t-21.5 -58.5h-2q-12 32 -23 61.5t-22 55.5l-95 234h-108l193 -470q-23 -56 -47 -97t-50.5 -71t-57 -50t-65.5 -33l63 -64q37 17 72.5 42t68 62.5t63 90t59.5 124.5zM423 673l-18 79q-40 -37 -93 -63t-99 -39l48 -47 q47 13 84 27t78 43z" />
<glyph unicode="&#xfe;" horiz-adv-x="613" d="M573 259q0 67 -23.5 118t-61 84.5t-82.5 50.5t-86 17q-48 0 -85.5 -11.5t-62.5 -31.5v326h-104v-1075h104v285q20 -13 53.5 -24t75.5 -11q58 0 107.5 20t86 56t57.5 85.5t21 110.5zM469 259q0 -41 -13.5 -74t-36 -56.5t-53.5 -36.5t-65 -13q-41 0 -74.5 14t-54.5 34v258 q21 23 54 38t75 15q34 0 65 -13t53.5 -36.5t36 -56.5t13.5 -73z" />
<glyph unicode="&#xff;" horiz-adv-x="546" d="M518 516h-100l-97 -238q-10 -26 -21.5 -54.5t-21.5 -58.5h-2q-12 32 -23 61.5t-22 55.5l-95 234h-108l193 -470q-23 -56 -47 -97t-50.5 -71t-57 -50t-65.5 -33l63 -64q37 17 72.5 42t68 62.5t63 90t59.5 124.5zM400 650q0 7 -5 15.5t-13 16.5t-16.5 13.5t-15.5 5.5 t-15.5 -5.5t-16 -13.5t-13 -16.5t-5.5 -15.5q0 -6 5.5 -14.5t13 -16.5t16 -13.5t15.5 -5.5t15.5 5.5t16.5 13.5t13 16.5t5 14.5zM252 650q0 7 -5 15.5t-13 16.5t-16.5 13.5t-15.5 5.5q-6 0 -14.5 -5.5t-16.5 -13.5t-13.5 -16.5t-5.5 -15.5q0 -6 5.5 -14.5t13.5 -16.5 t16.5 -13.5t14.5 -5.5q7 0 15.5 5.5t16.5 13.5t13 16.5t5 14.5z" />
<glyph unicode="&#x152;" horiz-adv-x="1086" d="M1062 0v95h-321v223h236v95h-236v220h282v94h-391v-38q-46 26 -97 39.5t-104 13.5q-73 0 -142 -26t-123 -74.5t-87 -118.5t-33 -158q0 -89 33 -159t87 -118.5t123 -75t142 -26.5q53 0 104 14t97 40v-40h430zM632 161q-40 -37 -93 -58t-108 -21q-50 0 -99 19t-88 55 t-63 89t-24 120t24 119.5t63 88.5t88 54.5t99 18.5q55 0 108 -21t93 -57v-407z" />
<glyph unicode="&#x153;" horiz-adv-x="1002" d="M962 333q0 35 -14.5 70.5t-43 63.5t-70.5 45t-95 17q-55 0 -110.5 -26t-93.5 -78q-37 49 -94.5 76.5t-125.5 27.5q-59 0 -109 -20t-87 -56t-58 -85.5t-21 -109.5q0 -61 21 -110.5t58 -85t87 -55.5t109 -20q69 0 127 28t95 80q39 -52 96.5 -80t125.5 -28q53 0 89.5 9.5 t63.5 24.5l26 110q-36 -26 -75.5 -39t-89.5 -13q-46 0 -79.5 14.5t-55.5 38t-34 50.5t-13 51h310l58 58q3 17 3 42zM857 331q0 -10 -1 -14h-259q5 27 19 49.5t34.5 39t45 25.5t48.5 9q26 0 47 -9.5t35.5 -25.5t22.5 -35.5t8 -38.5zM483 258q0 -40 -13.5 -73t-37 -56.5 t-53.5 -36.5t-64 -13q-35 0 -65.5 13t-54 36.5t-37 56.5t-13.5 73q0 41 13.5 74t37 56.5t54 36.5t65.5 13q34 0 64 -13t53.5 -36.5t37 -56.5t13.5 -74z" />
<glyph unicode="&#x178;" horiz-adv-x="688" d="M677 727h-113l-146 -205q-14 -22 -33.5 -50.5t-35.5 -51.5h-2q-16 23 -34.5 51t-34.5 51l-146 205h-121l279 -392v-335h108v335zM490 873q0 8 -6.5 18.5t-15.5 19.5t-19 16t-18 7t-18.5 -7t-19.5 -16t-15.5 -19.5t-6.5 -18.5q0 -7 6.5 -17t15.5 -19t19.5 -16t18.5 -7 t18 7t19 16t15.5 19t6.5 17zM316 873q0 8 -6.5 18.5t-15.5 19.5t-19.5 16t-18.5 7q-7 0 -17 -7t-19 -16t-16 -19.5t-7 -18.5q0 -7 7 -17t16 -19t19 -16t17 -7q8 0 18.5 7t19.5 16t15.5 19t6.5 17z" />
<glyph unicode="&#x2c6;" d="M377 640q-45 19 -83 53t-66 75q-30 -41 -67.5 -75t-82.5 -53l54 -54q28 12 50.5 27t45.5 39q23 -24 45 -39t50 -27z" />
<glyph unicode="&#x2da;" d="M358 703q0 27 -10.5 50t-28 41t-41.5 28t-50 10t-50 -10t-41.5 -28t-28 -41t-10.5 -50q0 -26 10.5 -49.5t28 -41t41.5 -27.5t50 -10t50 10t41.5 27.5t28 41t10.5 49.5zM294 703q0 -29 -18 -47.5t-48 -18.5t-48 18.5t-18 47.5q0 30 18 48.5t48 18.5t48 -18.5t18 -48.5z " />
<glyph unicode="&#x2dc;" d="M390 722q-31 -19 -64 -31.5t-65 -17.5l-17 71q-46 -3 -80.5 -17.5t-74.5 -36.5l-21 -82q67 38 129 48l17 -70q46 3 80.5 16.5t74.5 39.5z" />
<glyph unicode="&#x2000;" horiz-adv-x="530" />
<glyph unicode="&#x2001;" horiz-adv-x="1060" />
<glyph unicode="&#x2002;" horiz-adv-x="530" />
<glyph unicode="&#x2003;" horiz-adv-x="1060" />
<glyph unicode="&#x2004;" horiz-adv-x="353" />
<glyph unicode="&#x2005;" horiz-adv-x="265" />
<glyph unicode="&#x2006;" horiz-adv-x="176" />
<glyph unicode="&#x2007;" horiz-adv-x="176" />
<glyph unicode="&#x2008;" horiz-adv-x="132" />
<glyph unicode="&#x2009;" horiz-adv-x="212" />
<glyph unicode="&#x200a;" horiz-adv-x="58" />
<glyph unicode="&#x2010;" horiz-adv-x="376" d="M331 271v89h-285v-89h285z" />
<glyph unicode="&#x2011;" horiz-adv-x="376" d="M331 271v89h-285v-89h285z" />
<glyph unicode="&#x2012;" horiz-adv-x="376" d="M331 271v89h-285v-89h285z" />
<glyph unicode="&#x2013;" horiz-adv-x="661" d="M616 271v89h-570v-89h570z" />
<glyph unicode="&#x2014;" horiz-adv-x="946" d="M901 271v89h-855v-89h855z" />
<glyph unicode="&#x2018;" horiz-adv-x="224" d="M200 805l-40 7q-21 -20 -41.5 -48t-37 -57.5t-27.5 -57t-11 -44.5q0 -10 8 -22t19.5 -22t23.5 -17t19 -7q8 0 19.5 7.5t22.5 17.5t19 22t8 21q0 7 -6 16t-14.5 17t-18.5 14.5t-16 7.5q3 26 22.5 65.5t50.5 79.5z" />
<glyph unicode="&#x2019;" horiz-adv-x="224" d="M181 749q0 10 -8 22t-19.5 22.5t-23 17t-18.5 6.5q-8 0 -20 -7t-23 -17.5t-19 -22.5t-8 -21q0 -7 6 -16t14.5 -17t18 -14.5t17.5 -7.5q-5 -26 -24 -65.5t-50 -79.5l40 -6q20 18 40.5 46.5t38 58t28 57t10.5 44.5z" />
<glyph unicode="&#x201a;" horiz-adv-x="224" d="M181 57q0 10 -8 22t-19.5 22.5t-23 17t-18.5 6.5q-8 0 -20 -7t-23 -17.5t-19 -22.5t-8 -21q0 -7 6 -16t14.5 -17t18 -14.5t17.5 -7.5q-5 -26 -24 -65.5t-50 -78.5l40 -7q20 18 40.5 46.5t38 58t28 57t10.5 44.5z" />
<glyph unicode="&#x201c;" horiz-adv-x="419" d="M397 805l-41 8q-21 -20 -41.5 -47.5t-37 -57.5t-27.5 -57t-11 -45q0 -10 8 -22t19.5 -22.5t23.5 -17.5t19 -7q8 0 19.5 7.5t23 17.5t19 22t7.5 22q0 7 -6 15.5t-14.5 17.5t-18.5 15t-16 7q3 26 22.5 65t51.5 79zM200 805l-40 7q-21 -20 -41.5 -48t-37 -57.5t-27.5 -57 t-11 -44.5q0 -10 8 -22t19.5 -22t23.5 -17t19 -7q8 0 19.5 7.5t22.5 17.5t19 22t8 21q0 7 -6 16t-14.5 18t-18.5 14.5t-16 6.5q3 26 22.5 65.5t50.5 79.5z" />
<glyph unicode="&#x201d;" horiz-adv-x="420" d="M377 749q0 10 -8.5 22t-19 22.5t-22.5 17t-19 6.5q-8 0 -20 -7t-23 -17.5t-19 -22.5t-8 -21q0 -7 6 -15.5t14.5 -17t18 -15t17.5 -7.5q-4 -26 -23.5 -64.5t-50.5 -78.5l40 -8q20 18 40.5 46.5t38 58t28 57t10.5 44.5zM181 749q0 10 -8.5 22t-19.5 22.5t-22.5 17 t-18.5 6.5q-8 0 -20 -7t-23 -17.5t-19 -22.5t-8 -21q0 -7 6 -16t14.5 -17t18 -14.5t17.5 -7.5q-5 -26 -24 -65.5t-50 -79.5l40 -6q20 18 40.5 46.5t38 58t28 57t10.5 44.5z" />
<glyph unicode="&#x201e;" horiz-adv-x="403" d="M370 57q0 10 -8.5 22t-19 22.5t-22.5 17t-19 6.5q-8 0 -20 -7t-23 -17.5t-19 -22.5t-8 -21q0 -7 6 -15.5t14.5 -17t18 -15t17.5 -7.5q-4 -26 -23.5 -64.5t-50.5 -78.5l40 -8q21 18 41.5 46.5t37.5 58t27.5 57t10.5 44.5zM174 57q0 10 -8.5 22t-19 22.5t-22.5 17t-19 6.5 q-8 0 -20 -7t-23 -17.5t-19 -22.5t-8 -21q0 -7 6 -16t14.5 -17t18 -14.5t17.5 -7.5q-4 -26 -23.5 -65.5t-50.5 -78.5l40 -7q21 18 41.5 46.5t37.5 58t27.5 57t10.5 44.5z" />
<glyph unicode="&#x2022;" horiz-adv-x="450" d="M393 316q0 37 -13 67.5t-35 52.5t-53 34t-66 12q-36 0 -66.5 -12t-53.5 -34t-36 -52.5t-13 -67.5t13 -67.5t36 -52.5t53.5 -34t66.5 -12q35 0 66 12t53 34t35 52.5t13 67.5z" />
<glyph unicode="&#x2026;" horiz-adv-x="625" d="M584 57q0 8 -7.5 20t-19 23t-23.5 18t-21 7t-20.5 -7t-23 -18t-19 -23t-7.5 -20q0 -9 7.5 -20.5t19 -23t23 -19t20.5 -7.5t21 7.5t23.5 19t19 23t7.5 20.5zM382 57q0 8 -7.5 20t-19 23t-23.5 18t-20 7q-9 0 -21 -7t-22.5 -18t-18 -23t-7.5 -20q0 -9 7.5 -20.5t18 -23 t22.5 -19t21 -7.5q8 0 20 7.5t23.5 19t19 23t7.5 20.5zM181 57q0 8 -7.5 20t-18.5 23t-23 18t-20 7q-9 0 -20.5 -7t-23 -18t-19 -23t-7.5 -20q0 -9 7.5 -20.5t19 -23t23 -19t20.5 -7.5q8 0 20 7.5t23 19t18.5 23t7.5 20.5z" />
<glyph unicode="&#x202f;" horiz-adv-x="212" />
<glyph unicode="&#x2039;" horiz-adv-x="263" d="M239 180q-19 38 -44.5 70.5t-58.5 65.5q65 64 103 135l-59 60q-68 -113 -181 -195q57 -40 102 -89t79 -106z" />
<glyph unicode="&#x203a;" horiz-adv-x="263" d="M264 316q-112 82 -181 195l-59 -60q36 -70 103 -135q-34 -33 -59 -65.5t-44 -70.5l59 -59q34 57 79 106t102 89z" />
<glyph unicode="&#x205f;" horiz-adv-x="265" />
<glyph unicode="&#x2122;" horiz-adv-x="474" d="M435 516l-17 211h-28l-73 -146l-75 146h-28l-17 -211h39l9 119l62 -119h14l64 121l11 -121h39zM184 691v36h-161v-36h60v-175h40v175h61z" />
<glyph unicode="&#x25fc;" horiz-adv-x="518" d="M0 519h519v-519h-519v519z" />
<glyph unicode="&#xfb01;" horiz-adv-x="595" d="M510 0v516h-307v80q0 25 7 49.5t20.5 43t34 30t46.5 11.5q37 0 67 -10t46 -20l21 87q-23 12 -52 20.5t-70 8.5q-106 0 -165 -63.5t-59 -179.5v-57h-88v-83h88v-433h104v433h203v-433h104z" />
<glyph unicode="&#xfb02;" horiz-adv-x="649" d="M609 54q-25 4 -47.5 26.5t-22.5 58.5v626q-36 28 -79 39.5t-95 11.5q-57 0 -106 -18t-84.5 -53.5t-55.5 -87.5t-20 -119v-22h-88v-83h88v-433h104v433h97l18 83h-115v45q0 40 11.5 71t31.5 53t46.5 33.5t56.5 11.5q31 0 51 -3t35 -11v-591q0 -37 11.5 -63t27.5 -42.5 t34 -25t30 -11.5z" />
</font>
</defs>
</svg>
